<svg width="64" height="58" viewBox="0 0 64 58" fill="none" xmlns="http://www.w3.org/2000/svg">
<g clip-path="url(#clip0_1_1090)">
<path d="M34.7 47.0986C34.5693 47.6026 34.3568 48.0682 34.076 48.4899C32.6666 50.6084 29.5339 51.6206 26.3392 50.7921C23.1444 49.9636 20.899 47.5566 20.6968 45.0203C20.6557 44.5151 20.6969 44.005 20.8276 43.501L34.7 47.0986Z" fill="#3F964F"/>
<path d="M34.6999 47.0984C34.5692 47.6025 34.3568 48.0681 34.0759 48.4898L20.6973 45.0203C20.6562 44.5151 20.6974 44.005 20.8281 43.501L34.7005 47.0986L34.6999 47.0984Z" fill="#0E6A41"/>
<path d="M48.3949 25.5218C50.4865 17.4567 45.6904 9.23357 37.6807 7.14446C29.7806 5.08382 21.6196 9.80629 19.4158 17.7203C18.452 21.1814 18.766 24.6847 20.0666 27.7315C21.7123 31.5866 22.0674 35.8778 21.0126 39.9449L20.994 40.0168L36.2462 43.9722L36.2648 43.9003C37.321 39.8276 39.7275 36.252 43.0412 33.6753C45.5845 31.6974 47.5209 28.8896 48.3944 25.5217L48.3949 25.5218Z" fill="#FFE91D"/>
<path d="M31.2471 40.9102C31.2066 40.8997 31.1673 40.8824 31.1305 40.8579C30.9542 40.7396 30.9075 40.5002 31.0255 40.3231C31.0556 40.2779 34.0556 35.7566 36.6116 31.023C41.1419 22.6328 40.3849 20.8815 39.8486 20.5181C38.2728 19.4495 36.6534 20.0061 35.5723 20.6606C35.2545 20.8531 34.9386 21.0812 34.6298 21.3392C34.8332 22.0805 34.9825 22.8803 35.0675 23.7063C35.3005 25.9734 35.0041 27.9579 34.2747 29.0143C33.712 29.8295 32.8936 30.1047 31.9706 29.7891C31.0998 29.4913 30.584 28.8053 30.4796 27.8052C30.3595 26.6582 30.8087 25.1334 31.7121 23.6229C32.2824 22.6687 32.9933 21.7931 33.7633 21.0793C33.4627 20.1313 33.0518 19.2756 32.5302 18.6368C31.756 17.688 30.8663 17.4245 29.8855 17.854C27.8605 18.741 26.7637 22.7032 26.7149 29.3134C26.6773 34.4096 27.2953 39.2903 27.3016 39.3389C27.3285 39.55 27.18 39.7442 26.9699 39.7718C26.7597 39.8 26.5671 39.6513 26.5403 39.4396C26.5342 39.3904 25.9096 34.4647 25.9476 29.3168C25.9991 22.274 27.2212 18.1795 29.5811 17.146C30.8775 16.5783 32.1356 16.9337 33.1247 18.1459C33.6201 18.7535 34.0507 19.5834 34.3854 20.5486C34.6464 20.3449 34.9112 20.1606 35.1777 19.9995C36.9768 18.9098 38.789 18.8662 40.2797 19.8777C41.2077 20.5069 41.268 22.0008 40.464 24.4441C39.8714 26.2459 38.8014 28.5839 37.2844 31.3933C34.7116 36.1576 31.6935 40.7052 31.6635 40.7504C31.5702 40.891 31.4011 40.9501 31.2476 40.9103L31.2471 40.9102ZM33.9963 21.9211C33.3901 22.5298 32.8318 23.2461 32.3694 24.0189C31.5623 25.3681 31.1411 26.7526 31.2428 27.7222C31.3163 28.4215 31.6352 28.8589 32.2198 29.0587C32.8222 29.2649 33.275 29.1109 33.6449 28.5761C34.4861 27.3577 34.6016 24.4538 33.9967 21.9218L33.9963 21.9211Z" fill="white"/>
<path d="M22.7579 38.5095L35.4377 41.7978C36.9484 42.1895 37.8547 43.7415 37.4605 45.2616L37.4306 45.377C37.0364 46.897 35.49 47.8129 33.9794 47.4212L21.3001 44.133C19.7895 43.7412 18.8832 42.1892 19.2773 40.6692L19.3073 40.5538C19.7015 39.0338 21.2478 38.1178 22.7585 38.5096L22.7579 38.5095Z" fill="#3F964F"/>
<path d="M58.3904 28.7547L53.6412 27.523C52.9652 27.3477 52.5601 26.6541 52.7365 25.9738C52.913 25.2936 53.604 24.8842 54.2801 25.0596L59.0293 26.2912C59.7054 26.4665 60.1104 27.1601 59.934 27.8404C59.7576 28.5207 59.0665 28.93 58.3904 28.7547Z" fill="#FFE91D"/>
<path d="M13.7865 17.1873L9.03731 15.9557C8.36123 15.7804 7.95618 15.0868 8.13259 14.4065C8.30901 13.7262 9.00009 13.3169 9.67617 13.4922L14.4253 14.7238C15.1014 14.8992 15.5065 15.5928 15.3301 16.273C15.1536 16.9533 14.4626 17.3627 13.7865 17.1873Z" fill="#FFE91D"/>
<path d="M19.4266 7.85901L16.3975 3.9855C15.9663 3.43389 16.0624 2.63459 16.6123 2.19937C17.1623 1.76414 17.9575 1.8585 18.3882 2.40997L21.4171 6.28404C21.8483 6.83565 21.7521 7.6355 21.2023 8.07017C20.6523 8.5054 19.8576 8.41118 19.4264 7.85957L19.4266 7.85901Z" fill="#FFE91D"/>
<path d="M53.0027 16.5665L57.5326 14.6526C58.1775 14.3801 58.482 13.6349 58.2129 12.9872C57.9437 12.3396 57.2034 12.0357 56.5585 12.3082L52.0286 14.2221C51.3836 14.4946 51.079 15.2404 51.3483 15.8875C51.6174 16.5351 52.3577 16.839 53.0027 16.5665Z" fill="#FFE91D"/>
<path d="M14.425 27.1453L9.89507 29.0591C9.25011 29.3316 8.94551 30.0775 9.21476 30.7245C9.48388 31.3722 10.2248 31.6762 10.8692 31.4035L15.399 29.4897C16.044 29.2172 16.3485 28.4719 16.0793 27.8243C15.8102 27.1767 15.0699 26.8728 14.425 27.1453Z" fill="#FFE91D"/>
<path d="M48.0011 35.8532L51.03 39.7272C51.4612 40.2789 51.365 41.0787 50.8152 41.5134C50.2652 41.9486 49.4705 41.8544 49.0393 41.3028L46.0104 37.4287C45.5792 36.8771 45.6753 36.0778 46.2252 35.6426C46.7752 35.2073 47.5699 35.3016 48.0011 35.8532Z" fill="#FFE91D"/>
</g>
<defs>
<clipPath id="clip0_1_1090">
<rect width="53.515" height="45.0969" fill="white" transform="translate(11.7593 0.421875) rotate(14.5385)"/>
</clipPath>
</defs>
</svg>
