<svg width="527" height="449" viewBox="0 0 527 449" fill="none" xmlns="http://www.w3.org/2000/svg">
<rect x="119.97" y="0.128906" width="401" height="403" rx="32" transform="rotate(6.97988 119.97 0.128906)" fill="#FF748E"/>
<rect x="97.0001" y="19" width="401" height="403" rx="32" fill="#6C63FF"/>
<g clip-path="url(#clip0_1_998)">
<path d="M434.227 210.169L456.474 185.925L438.267 171.532L429.272 191.454L388.465 204.959C387.09 204.167 385.514 203.793 383.93 203.882C382.346 203.972 380.823 204.521 379.545 205.463C378.267 206.405 377.291 207.699 376.734 209.188C376.178 210.676 376.066 212.294 376.412 213.846C376.758 215.397 377.547 216.813 378.683 217.923C379.819 219.033 381.252 219.787 382.809 220.095C384.365 220.402 385.977 220.249 387.448 219.655C388.92 219.06 390.186 218.05 391.094 216.747L434.227 210.169Z" fill="#FFB6B6"/>
<path d="M475.008 155.391C479.04 164.4 454.437 190.136 454.437 190.136C447.708 195.587 446.642 209.232 438.301 210.751C415.803 214.849 429.796 210.561 423.985 212.8C418.516 214.908 423.553 196.872 419.894 195.725C417.802 195.07 429.439 187.529 429.439 187.529C429.439 187.529 439.926 166.925 446.374 156.237C448.141 153.181 450.651 150.624 453.671 148.801C456.69 146.979 460.12 145.952 463.642 145.815C463.642 145.815 470.975 146.383 475.008 155.391Z" fill="#E6E6E6"/>
<path d="M370.848 423.191H115.217C109.158 423.184 103.349 420.769 99.0646 416.477C94.7802 412.185 92.3703 406.366 92.3635 400.296V28.895C92.3703 22.825 94.7802 17.0055 99.0646 12.7134C103.349 8.4212 109.158 6.00685 115.217 6H370.848C376.907 6.00686 382.715 8.4212 387 12.7134C391.284 17.0055 393.694 22.825 393.701 28.895V400.296C393.694 406.366 391.284 412.185 387 416.477C382.715 420.769 376.907 423.184 370.848 423.191V423.191Z" fill="#3F3D56"/>
<path d="M371.298 408.583H114.767C112.899 408.581 111.108 407.837 109.788 406.514C108.467 405.19 107.724 403.397 107.722 401.525V27.6652C107.724 25.794 108.467 24.0001 109.788 22.677C111.108 21.3539 112.899 20.6097 114.767 20.6075H371.298C373.165 20.6097 374.956 21.3539 376.277 22.677C377.597 24.0001 378.34 25.794 378.342 27.6652V401.525C378.34 403.397 377.597 405.19 376.277 406.514C374.956 407.837 373.165 408.581 371.298 408.583V408.583Z" fill="white"/>
<path d="M127.282 192.638C127.998 182.897 129.18 170.921 138.801 165.717C143.34 163.262 148.147 164.13 152.711 166.044C157.121 167.894 161.276 170.099 166.025 170.968C174.213 172.384 182.638 171.118 190.051 167.359C197.518 163.639 203.509 157.497 207.047 149.932C208.869 146.085 210.374 141.915 213.058 138.558C214.408 136.795 216.198 135.419 218.248 134.569C220.297 133.72 222.534 133.426 224.733 133.717C234.82 134.965 241.514 143.82 249.556 149.032C253.424 151.539 257.865 153.37 262.548 153.145C267.351 152.915 271.706 150.637 275.387 147.663C283.198 141.353 287.468 131.594 295.666 125.714C299.552 122.996 304.062 121.307 308.775 120.805C313.489 120.303 318.252 121.005 322.622 122.844C331.023 126.475 336.972 134.61 338.543 143.562C338.919 145.768 339.017 148.013 338.832 150.243C338.73 151.558 340.776 151.551 340.878 150.243C341.184 145.603 340.416 140.955 338.634 136.661C336.851 132.368 334.101 128.545 330.6 125.492C323.348 119.224 313.216 117.187 304 119.599C299.308 120.846 294.995 123.234 291.445 126.552C287.654 130.055 284.663 134.299 281.463 138.323C278.341 142.247 274.896 146.038 270.514 148.573C268.416 149.854 266.064 150.661 263.623 150.94C261.181 151.218 258.709 150.96 256.377 150.183C251.647 148.585 247.639 145.291 243.854 142.138C239.953 138.887 236.07 135.635 231.381 133.569C227.021 131.649 222.021 130.717 217.482 132.609C213.39 134.314 210.682 137.853 208.674 141.681C206.637 145.567 205.186 149.757 202.808 153.462C200.508 157.009 197.557 160.086 194.112 162.529C187.113 167.539 178.603 169.975 170.019 169.426C165.355 169.094 161.114 167.618 156.891 165.683C152.229 163.548 147.32 161.328 142.075 162.362C137.551 163.254 133.744 166.334 131.102 170.013C128.05 174.26 126.71 179.466 126.01 184.58C125.644 187.255 125.435 189.946 125.237 192.638C125.14 193.954 127.186 193.948 127.282 192.638V192.638Z" fill="#E4E4E4"/>
<path d="M488.813 413.321L479.101 413.32L474.481 375.792L488.814 375.793L488.813 413.321Z" fill="#FFB6B6"/>
<path d="M488.554 410.14L478.191 405.924L477.886 405.798L472.164 410.14C469.024 410.14 466.005 411.354 463.737 413.53C461.469 415.705 460.127 418.674 459.991 421.817C459.975 421.99 459.975 422.171 459.975 422.351V422.752H491.289V410.14H488.554Z" fill="#2F2E41"/>
<path d="M466.069 404.265L456.908 407.495L440.117 373.631L453.637 368.865L466.069 404.265Z" fill="#FFB6B6"/>
<path d="M464.771 401.353L453.6 400.821L453.27 400.804L449.311 406.803C446.348 407.847 443.903 409.996 442.484 412.802C441.066 415.609 440.783 418.856 441.696 421.866C441.739 422.034 441.799 422.204 441.858 422.375L441.991 422.752L471.53 412.34L467.352 400.443L464.771 401.353Z" fill="#2F2E41"/>
<path d="M492.244 251.509C501.129 251.164 490.123 322.097 490.123 322.097C490.123 322.097 493.343 384.373 492.66 387.641C491.978 390.909 492.574 399.724 492.574 399.724C490.833 396.55 472.875 398.945 472.875 398.945L470.432 335.828L457.958 285.257L440.665 319.156L457.24 371.188C457.24 371.188 463.952 377.411 463.238 379.87C462.524 382.329 444.943 387.874 441.712 388C438.481 388.125 439.94 384.016 439.783 379.97C439.627 375.925 424.423 338.426 419.076 325.667C413.729 312.909 417.886 294.918 420.615 281.846C423.345 268.773 437.706 244.24 437.706 244.24C455.531 224.098 483.36 251.854 492.244 251.509Z" fill="#2F2E41"/>
<path d="M467.381 133.658C476.74 133.658 484.327 126.058 484.327 116.681C484.327 107.305 476.74 99.7042 467.381 99.7042C458.022 99.7042 450.435 107.305 450.435 116.681C450.435 126.058 458.022 133.658 467.381 133.658Z" fill="#FFB6B6"/>
<path d="M458.908 144.879C455.257 147.054 453.073 151.049 451.82 155.114C449.499 162.641 448.101 170.423 447.659 178.288L442.837 225.214L433.529 248.317C453.433 246.586 497.572 254.711 497.572 254.711C497.572 254.711 499.212 254.163 497.572 252.52C495.933 250.877 494.336 252.333 495.976 250.69C497.616 249.047 496.485 250.877 495.939 249.234C495.392 247.591 495.939 248.687 496.485 248.139C497.032 247.591 492.254 242.663 492.254 242.663L496.627 213.883L502.093 155.832C495.533 147.617 482.341 142.775 482.341 142.775L478.932 136.628L461.888 137.994L458.908 144.879Z" fill="#E6E6E6"/>
<path d="M508.514 209.78L504.308 184.946L489.674 187.603L490.959 209.325L484.554 254.541C483.062 255.082 481.759 256.045 480.805 257.315C479.85 258.584 479.285 260.105 479.178 261.69C479.071 263.276 479.427 264.859 480.202 266.245C480.978 267.632 482.139 268.762 483.545 269.499C484.95 270.236 486.539 270.547 488.119 270.395C489.698 270.242 491.198 269.633 492.438 268.641C493.677 267.649 494.602 266.317 495.098 264.807C495.595 263.298 495.643 261.676 495.236 260.14L508.514 209.78Z" fill="#FFB6B6"/>
<path d="M496.424 151.669C505.894 154.401 509.624 189.84 509.624 189.84C513.914 206.943 505.796 214.146 503.735 214.07C497.88 213.857 494.636 208.835 491.4 210.894C489.549 212.072 489.203 198.542 489.203 198.542C489.203 198.542 482.563 185.954 478.58 174.12C477.392 170.795 477.063 167.224 477.624 163.737C478.184 160.251 479.616 156.964 481.786 154.181C481.786 154.181 486.953 148.938 496.424 151.669Z" fill="#E6E6E6"/>
<path d="M486.772 111.494C486.717 108.736 486.404 105.208 484.476 102.394C482.849 100.027 479.567 98.1512 476.508 99.0891C476.542 98.4762 476.406 97.8658 476.115 97.3257C475.824 96.7857 475.389 96.3371 474.858 96.0298C473.686 95.4288 472.392 95.1024 471.075 95.0752C467.971 94.7849 464.756 94.4834 461.613 95.0808C458.086 95.7507 455.199 97.5706 453.7 100.077L453.667 100.155L453.36 101.64C453.319 101.839 453.236 102.027 453.116 102.191C452.995 102.355 452.841 102.491 452.664 102.589C452.486 102.689 452.288 102.749 452.085 102.763C451.882 102.778 451.678 102.747 451.488 102.673C451.28 102.595 451.055 102.573 450.836 102.608C450.617 102.644 450.41 102.736 450.238 102.876C450.065 103.016 449.931 103.198 449.851 103.405C449.77 103.613 449.745 103.837 449.777 104.058L449.861 104.649L448.975 104.482C448.752 104.439 448.522 104.456 448.309 104.531C448.095 104.607 447.906 104.738 447.76 104.912C447.614 105.086 447.517 105.295 447.478 105.519C447.44 105.742 447.462 105.972 447.543 106.185L447.788 106.86C447.605 106.863 447.424 106.902 447.257 106.976C447.089 107.05 446.938 107.156 446.813 107.29C446.634 107.485 446.521 107.731 446.491 107.994C446.461 108.257 446.515 108.522 446.645 108.753C447.638 110.451 449.046 111.868 450.736 112.873C451.495 113.331 452.315 113.682 453.171 113.916C453.349 113.967 453.533 114.011 453.722 114.05C460.564 115.528 467.618 115.74 474.535 114.676C474.128 116.043 473.971 117.473 474.073 118.896C474.133 119.703 474.412 120.479 474.881 121.138C475.349 121.797 475.989 122.316 476.731 122.637C477.046 122.744 477.371 122.822 477.7 122.871C478.016 122.922 478.327 122.999 478.631 123.1C479.079 123.264 479.476 123.544 479.781 123.912C480.087 124.279 480.29 124.721 480.37 125.192C480.451 125.664 480.405 126.148 480.239 126.596C480.072 127.044 479.791 127.441 479.422 127.745C479.422 127.745 480.882 128.956 481.066 128.895C481.784 128.577 482.384 128.042 482.783 127.365C485.563 123.357 486.906 118.02 486.772 111.494Z" fill="#2F2E41"/>
<path d="M42.813 367.556L40.8222 377.563C40.6723 378.327 40.5155 379.106 40.345 379.878C38.6812 379.532 36.956 379.629 35.3409 380.158C36.6223 381.992 37.7706 383.917 38.777 385.916C37.5225 389.788 35.6818 393.367 32.6002 395.956C30.5421 397.646 28.0839 398.777 25.4628 399.239C22.8416 399.7 20.1459 399.478 17.6356 398.592L17.7242 398.196C14.4109 391.755 16.2107 383.634 20.3286 377.685C22.4288 374.751 24.9173 372.115 27.7257 369.851C30.5072 367.529 33.5138 365.446 36.4931 363.39C37.1622 362.929 37.9534 362.678 38.7654 362.67C39.5775 362.662 40.3735 362.896 41.0519 363.344C41.7303 363.791 42.2603 364.43 42.5739 365.181C42.8876 365.931 42.9709 366.758 42.813 367.556V367.556Z" fill="#E4E4E4"/>
<path d="M18.3444 422.668C17.5065 416.553 16.6448 410.36 17.2325 404.18C17.7547 398.691 19.4257 393.33 22.829 388.934C24.6354 386.605 26.8334 384.61 29.3242 383.038C29.9739 382.628 30.5711 383.659 29.9248 384.067C25.6152 386.796 22.2819 390.825 20.4054 395.574C18.3328 400.855 18.0001 406.612 18.3601 412.221C18.5762 415.614 19.0337 418.983 19.4952 422.35C19.5324 422.503 19.51 422.664 19.4327 422.8C19.3554 422.936 19.229 423.038 19.0793 423.084C18.9271 423.125 18.7648 423.104 18.6278 423.026C18.4907 422.948 18.3898 422.819 18.3471 422.667L18.3444 422.668Z" fill="#F2F2F2"/>
<path d="M242.06 14.9588C243.134 14.9588 244.004 14.0868 244.004 13.0112C244.004 11.9355 243.134 11.0635 242.06 11.0635C240.986 11.0635 240.116 11.9355 240.116 13.0112C240.116 14.0868 240.986 14.9588 242.06 14.9588Z" fill="white"/>
<path d="M355.725 193.305H125.125C124.934 193.305 124.751 193.229 124.615 193.093C124.48 192.958 124.404 192.774 124.404 192.582L124.754 191.777L355.725 191.859C355.917 191.858 356.1 191.934 356.236 192.069C356.372 192.204 356.449 192.387 356.449 192.579C356.45 192.771 356.375 192.955 356.24 193.091C356.105 193.227 355.922 193.304 355.73 193.305H355.725V193.305Z" fill="#3F3D56"/>
<path d="M168.989 188.247H167.574V192.288H168.989V188.247Z" fill="#3F3D56"/>
<path d="M211.365 165.025H209.95V192.288H211.365V165.025Z" fill="#3F3D56"/>
<path d="M253.828 132.241H252.413V192.288H253.828V132.241Z" fill="#3F3D56"/>
<path d="M296.291 104.238H294.875V192.288H296.291V104.238Z" fill="#3F3D56"/>
<path d="M338.754 168.44H337.338V192.288H338.754V168.44Z" fill="#3F3D56"/>
<path d="M295.67 99.3302C298.062 99.3302 300 97.388 300 94.9922C300 92.5965 298.062 90.6543 295.67 90.6543C293.279 90.6543 291.34 92.5965 291.34 94.9922C291.34 97.388 293.279 99.3302 295.67 99.3302Z" fill="#6C63FF"/>
<path d="M253.889 124.776C256.281 124.776 258.219 122.834 258.219 120.439C258.219 118.043 256.281 116.101 253.889 116.101C251.498 116.101 249.559 118.043 249.559 120.439C249.559 122.834 251.498 124.776 253.889 124.776Z" fill="#6C63FF"/>
<path d="M338.133 164.787C340.525 164.787 342.463 162.845 342.463 160.449C342.463 158.053 340.525 156.111 338.133 156.111C335.742 156.111 333.803 158.053 333.803 160.449C333.803 162.845 335.742 164.787 338.133 164.787Z" fill="#6C63FF"/>
<path d="M209.527 343.753V292.569C209.527 291.913 210.289 291.381 211.229 291.381H218.825C219.765 291.381 220.528 291.913 220.528 292.569V343.887L209.527 343.753Z" fill="#3F3D56"/>
<path d="M234.616 343.926V304.818C234.616 304.187 235.378 303.676 236.318 303.676H243.915C244.855 303.676 245.617 304.187 245.617 304.818V343.842L234.616 343.926Z" fill="#3F3D56"/>
<path d="M284.794 343.835V323.945C284.728 323.707 285.487 323.501 286.497 323.483H294.093C295.102 323.501 295.861 323.707 295.795 323.945V343.887L284.794 343.835Z" fill="#3F3D56"/>
<path d="M184.437 343.835V323.945C184.437 323.689 185.2 323.483 186.14 323.483H193.736C194.676 323.483 195.438 323.69 195.438 323.945V343.887L184.437 343.835Z" fill="#3F3D56"/>
<path d="M259.705 343.637V247.588C259.705 246.356 260.467 245.357 261.407 245.357H269.003C269.943 245.357 270.706 246.356 270.706 247.588V343.887L259.705 343.637Z" fill="#6C63FF"/>
<path d="M328.533 344.771H156.729C156.549 344.771 156.375 344.699 156.247 344.571C156.12 344.443 156.048 344.269 156.048 344.088C156.048 343.907 156.12 343.733 156.247 343.605C156.375 343.477 156.549 343.405 156.729 343.405H328.533C328.714 343.405 328.887 343.477 329.015 343.605C329.143 343.733 329.215 343.907 329.215 344.088C329.215 344.269 329.143 344.443 329.015 344.571C328.887 344.699 328.714 344.771 328.533 344.771Z" fill="#3F3D56"/>
<path d="M526.318 424H0.681759C0.500946 424 0.327537 423.928 0.199682 423.8C0.0718275 423.672 0 423.498 0 423.317C0 423.136 0.0718275 422.962 0.199682 422.834C0.327537 422.706 0.500946 422.634 0.681759 422.634H526.318C526.499 422.634 526.672 422.706 526.8 422.834C526.928 422.962 527 423.136 527 423.317C527 423.498 526.928 423.672 526.8 423.8C526.672 423.928 526.499 424 526.318 424Z" fill="#CACACA"/>
<path d="M168.476 183.756C170.867 183.756 172.806 181.814 172.806 179.418C172.806 177.022 170.867 175.08 168.476 175.08C166.084 175.08 164.146 177.022 164.146 179.418C164.146 181.814 166.084 183.756 168.476 183.756Z" fill="#6C63FF"/>
<path d="M210.745 159.85C213.136 159.85 215.075 157.908 215.075 155.513C215.075 153.117 213.136 151.175 210.745 151.175C208.353 151.175 206.414 153.117 206.414 155.513C206.414 157.908 208.353 159.85 210.745 159.85Z" fill="#6C63FF"/>
</g>
<defs>
<clipPath id="clip0_1_998">
<rect width="527" height="418" fill="white" transform="translate(0 6)"/>
</clipPath>
</defs>
</svg>
