<svg width="135" height="192" viewBox="0 0 135 192" fill="none" xmlns="http://www.w3.org/2000/svg">
<g clip-path="url(#clip0_1_227)">
<path fill-rule="evenodd" clip-rule="evenodd" d="M85.6401 11.8595C88.4601 13.3295 91.0401 15.1595 93.3201 17.2695L101.52 14.3495L109.23 26.5195L103.09 32.6895C104.03 35.6595 104.58 38.7595 104.7 41.9495L112.56 45.6795L109.4 59.7395L100.69 59.7595C99.2201 62.5795 97.3901 65.1595 95.2801 67.4395L98.2001 75.6495L86.0301 83.3595L79.8601 77.2195C76.8901 78.1595 73.7901 78.7095 70.6001 78.8295L66.8701 86.6995L52.8101 83.5495L52.7901 74.8395C49.9701 73.3695 47.3901 71.5395 45.1101 69.4295L36.9001 72.3495L29.1901 60.1795L35.3401 54.0095C34.4001 51.0395 33.8501 47.9395 33.7301 44.7595L25.8701 41.0195L29.0201 26.9595L37.7301 26.9395C39.2001 24.1195 41.0301 21.5395 43.1401 19.2595L40.2201 11.0495L52.3901 3.33953L58.5601 9.48953C61.5301 8.54953 64.6301 7.99953 67.8201 7.87953L71.5501 0.0195312L85.6101 3.16953L85.6301 11.8795L85.6401 11.8595ZM73.2401 28.4095C64.9101 26.5395 56.6401 31.7795 54.7701 40.1095C52.9001 48.4395 58.1401 56.7095 66.4701 58.5795C74.8001 60.4495 83.0701 55.2095 84.9401 46.8795C86.8101 38.5495 81.5701 30.2795 73.2401 28.4095V28.4095Z" fill="#FFC1CD"/>
<g opacity="0.8">
<path fill-rule="evenodd" clip-rule="evenodd" d="M85.6401 11.8595C88.4601 13.3295 91.0401 15.1595 93.3201 17.2695L101.52 14.3495L109.23 26.5195L103.09 32.6895C104.03 35.6595 104.58 38.7595 104.7 41.9495L112.56 45.6795L109.4 59.7395L100.69 59.7595C99.2201 62.5795 97.3901 65.1595 95.2801 67.4395L98.2001 75.6495L86.0301 83.3595L79.8601 77.2195C76.8901 78.1595 73.7901 78.7095 70.6001 78.8295L66.8701 86.6995L52.8101 83.5495L52.7901 74.8395C49.9701 73.3695 47.3901 71.5395 45.1101 69.4295L36.9001 72.3495L29.1901 60.1795L35.3401 54.0095C34.4001 51.0395 33.8501 47.9395 33.7301 44.7595L25.8701 41.0195L29.0201 26.9595L37.7301 26.9395C39.2001 24.1195 41.0301 21.5395 43.1401 19.2595L40.2201 11.0495L52.3901 3.33953L58.5601 9.48953C61.5301 8.54953 64.6301 7.99953 67.8201 7.87953L71.5501 0.0195312L85.6101 3.16953L85.6301 11.8795L85.6401 11.8595ZM73.2401 28.4095C64.9101 26.5395 56.6401 31.7795 54.7701 40.1095C52.9001 48.4395 58.1401 56.7095 66.4701 58.5795C74.8001 60.4495 83.0701 55.2095 84.9401 46.8795C86.8101 38.5495 81.5701 30.2795 73.2401 28.4095V28.4095Z" fill="white"/>
</g>
<path d="M98.14 138.26C98.14 138.26 99.4 138.35 101.45 139.29C103.45 140.22 106.29 142.26 108.04 145.96C108.89 147.79 109.47 150 109.38 152.4C109.28 154.78 108.64 157.35 107.16 159.62C106.45 160.77 105.54 161.83 104.47 162.75C103.41 163.69 102.19 164.48 100.83 165.06C98.15 166.28 94.97 166.6 91.93 165.94C88.89 165.23 86.15 163.59 84.25 161.34C83.28 160.24 82.5 159 81.95 157.7C81.38 156.41 81 155.06 80.85 153.72C80.48 151.04 81.01 148.44 81.93 146.24C82.87 144.03 84.35 142.28 85.9 140.99C89.07 138.39 92.5 137.76 94.7 137.78C96.95 137.8 98.13 138.26 98.13 138.26C98.12 138.36 96.91 138.02 94.71 138.1C92.55 138.18 89.25 138.89 86.26 141.44C84.79 142.71 83.41 144.4 82.54 146.52C81.69 148.62 81.21 151.1 81.58 153.64C81.73 154.91 82.09 156.18 82.64 157.4C83.17 158.63 83.91 159.8 84.83 160.83C86.64 162.95 89.22 164.49 92.09 165.16C94.97 165.78 97.97 165.49 100.5 164.34C101.78 163.8 102.95 163.06 103.95 162.17C104.97 161.3 105.84 160.31 106.52 159.22C107.94 157.08 108.57 154.64 108.69 152.37C108.8 150.09 108.28 147.96 107.49 146.19C105.87 142.6 103.19 140.56 101.28 139.56C99.32 138.55 98.09 138.34 98.11 138.25L98.14 138.26Z" fill="#263238"/>
<path d="M109.35 123.29C109.35 123.29 109.33 123.13 109.32 122.8C109.32 122.43 109.3 121.94 109.29 121.31C109.27 119.94 109.24 117.97 109.21 115.42L109.31 115.54C106.05 114.83 101.76 113.89 96.58 112.76L96.81 112.65C95.8 114.81 94.67 117.21 93.46 119.78L93.4 119.91H93.26C90.61 120.03 87.8 120.48 84.96 121.39L84.81 121.44L84.7 121.33C82.95 119.6 81.07 117.73 79.1 115.79L79.45 115.83C75.99 118.03 72.31 120.37 68.46 122.83L68.59 122.46C69.41 124.76 70.32 127.29 71.25 129.88L71.32 130.07L71.18 130.22C69.4 132.14 67.7 134.49 66.35 137.1L66.25 137.29H66.04C63.6 137.29 60.91 137.31 58.17 137.32L58.52 137.04C57.63 141.04 56.67 145.35 55.68 149.76L55.48 149.34C57.7 150.39 60.13 151.54 62.6 152.71L62.81 152.81V153.04C62.92 155.67 63.38 158.53 64.27 161.31L64.34 161.53L64.17 161.7C62.43 163.45 60.53 165.36 58.61 167.29L58.66 166.8C60.87 170.29 63.24 174.02 65.64 177.81L65.17 177.65C67.51 176.81 70.04 175.91 72.59 175.01L72.82 174.93L73 175.1C74.96 176.91 77.3 178.6 79.85 179.93C79.95 180.09 79.64 179.58 80.07 180.29V180.34V180.4V180.52V180.77V181.27V182.26V184.23C80.07 185.54 80.07 186.85 80.08 188.16L79.77 187.77C84.07 188.74 88.31 189.69 92.49 190.63L92.04 190.85C93.18 188.46 94.31 186.08 95.42 183.74L95.52 183.52H95.76C98.6 183.4 101.39 182.91 104.03 182.08L104.25 182.01L104.42 182.18C106.31 184.06 108.16 185.91 110 187.74L109.53 187.69C113.29 185.31 116.96 182.99 120.55 180.73L120.4 181.17C119.51 178.65 118.63 176.18 117.77 173.74L117.7 173.53L117.85 173.37C119.8 171.27 121.43 168.94 122.7 166.51L122.8 166.32H123.01C125.71 166.32 128.33 166.32 130.88 166.32L130.56 166.58C131.57 162.11 132.53 157.89 133.44 153.87L133.61 154.21C131.11 153.02 128.77 151.9 126.5 150.81L126.34 150.73V150.56C126.22 147.55 125.7 144.79 124.91 142.26L124.86 142.11L124.97 142C127 139.98 128.82 138.16 130.55 136.44L130.52 136.73C127.84 132.45 125.55 128.81 123.59 125.69L123.8 125.76C120.83 126.8 118.39 127.65 116.36 128.35L116.29 128.38L116.23 128.33C114.14 126.38 112.36 125.19 111.17 124.43C110.59 124.08 110.14 123.81 109.82 123.61C109.51 123.43 109.36 123.34 109.37 123.33C109.37 123.33 109.54 123.4 109.85 123.55C110.16 123.71 110.63 123.95 111.24 124.31C112.46 125.03 114.27 126.19 116.4 128.13L116.27 128.1C118.29 127.37 120.72 126.48 123.67 125.41L123.8 125.36L123.88 125.48C125.86 128.58 128.18 132.21 130.9 136.46L131 136.62L130.87 136.76C129.16 138.49 127.34 140.33 125.33 142.36L125.39 142.09C126.21 144.66 126.76 147.47 126.88 150.53L126.72 150.28C128.99 151.35 131.34 152.46 133.84 153.64L134.06 153.74L134.01 153.98C133.12 158 132.18 162.23 131.18 166.7L131.12 166.96H130.85C128.29 166.97 125.68 166.98 122.98 166.99L123.29 166.8C122 169.29 120.34 171.67 118.35 173.83L118.43 173.47C119.3 175.9 120.18 178.37 121.08 180.89L121.18 181.17L120.93 181.33C117.35 183.6 113.68 185.93 109.93 188.32L109.67 188.48L109.45 188.26C107.61 186.43 105.75 184.58 103.86 182.71L104.25 182.81C101.54 183.67 98.69 184.18 95.78 184.29L96.12 184.07C95.01 186.42 93.88 188.79 92.75 191.19L92.61 191.48L92.3 191.41C88.12 190.47 83.88 189.52 79.58 188.56L79.27 188.49V188.17C79.27 186.87 79.27 185.56 79.27 184.24V182.26V181.27V180.77V180.52V180.4V180.34V180.29C79.7 180.99 79.39 180.48 79.48 180.64C76.86 179.28 74.46 177.55 72.45 175.69L72.86 175.77C70.31 176.68 67.78 177.58 65.44 178.41L65.14 178.52L64.97 178.25C62.57 174.46 60.21 170.72 58 167.24L57.83 166.97L58.05 166.75C59.97 164.82 61.87 162.92 63.61 161.17L63.52 161.56C62.62 158.71 62.15 155.78 62.05 153.09L62.27 153.42C59.81 152.25 57.37 151.09 55.16 150.03L54.89 149.9L54.96 149.61C55.96 145.2 56.93 140.89 57.83 136.89L57.89 136.61H58.18C60.92 136.61 63.61 136.61 66.05 136.61L65.74 136.8C67.13 134.13 68.88 131.74 70.7 129.79L70.63 130.13C69.71 127.53 68.82 125 68 122.7L67.92 122.46L68.13 122.33C72 119.89 75.68 117.57 79.16 115.38L79.35 115.26L79.51 115.42C81.46 117.38 83.34 119.26 85.08 121L84.81 120.94C87.7 120.04 90.57 119.59 93.25 119.5L93.05 119.63C94.28 117.07 95.42 114.68 96.46 112.53L96.53 112.38L96.69 112.42C101.86 113.61 106.14 114.6 109.39 115.35L109.49 115.37V115.47C109.47 118 109.45 119.96 109.43 121.31C109.42 121.95 109.41 122.45 109.4 122.82C109.4 123.16 109.38 123.34 109.37 123.34L109.35 123.29Z" fill="#263238"/>
<path fill-rule="evenodd" clip-rule="evenodd" d="M34.7902 94.6895C36.4302 95.5495 37.9302 96.6095 39.2602 97.8395L44.0402 96.1395L48.5302 103.23L44.9502 106.82C45.4902 108.55 45.8202 110.36 45.8902 112.21L50.4702 114.38L48.6302 122.56H43.5602C42.7002 124.21 41.6402 125.71 40.4102 127.04L42.1102 131.82L35.0202 136.31L31.4302 132.73C29.7002 133.27 27.8902 133.6 26.0402 133.67L23.8702 138.25L15.6802 136.41V131.34C14.0302 130.48 12.5302 129.42 11.2002 128.19L6.42023 129.89L1.93023 122.8L5.51023 119.21C4.97023 117.48 4.64023 115.67 4.57023 113.82L-0.00976562 111.65L1.83023 103.46H6.90023C7.76023 101.81 8.82023 100.31 10.0502 98.9795L8.35023 94.1995L15.4402 89.7095L19.0302 93.2895C20.7602 92.7495 22.5702 92.4195 24.4202 92.3495L26.5902 87.7695L34.7702 89.6095V94.6795H34.7802L34.7902 94.6895ZM27.5702 104.32C22.7202 103.23 17.9102 106.28 16.8202 111.13C15.7302 115.98 18.7802 120.79 23.6302 121.88C28.4802 122.97 33.2902 119.92 34.3802 115.07C35.4702 110.22 32.4202 105.41 27.5702 104.32V104.32Z" fill="#FFC1CD"/>
<g opacity="0.4">
<path fill-rule="evenodd" clip-rule="evenodd" d="M34.7902 94.6895C36.4302 95.5495 37.9302 96.6095 39.2602 97.8395L44.0402 96.1395L48.5302 103.23L44.9502 106.82C45.4902 108.55 45.8202 110.36 45.8902 112.21L50.4702 114.38L48.6302 122.56H43.5602C42.7002 124.21 41.6402 125.71 40.4102 127.04L42.1102 131.82L35.0202 136.31L31.4302 132.73C29.7002 133.27 27.8902 133.6 26.0402 133.67L23.8702 138.25L15.6802 136.41V131.34C14.0302 130.48 12.5302 129.42 11.2002 128.19L6.42023 129.89L1.93023 122.8L5.51023 119.21C4.97023 117.48 4.64023 115.67 4.57023 113.82L-0.00976562 111.65L1.83023 103.46H6.90023C7.76023 101.81 8.82023 100.31 10.0502 98.9795L8.35023 94.1995L15.4402 89.7095L19.0302 93.2895C20.7602 92.7495 22.5702 92.4195 24.4202 92.3495L26.5902 87.7695L34.7702 89.6095V94.6795H34.7802L34.7902 94.6895ZM27.5702 104.32C22.7202 103.23 17.9102 106.28 16.8202 111.13C15.7302 115.98 18.7802 120.79 23.6302 121.88C28.4802 122.97 33.2902 119.92 34.3802 115.07C35.4702 110.22 32.4202 105.41 27.5702 104.32V104.32Z" fill="white"/>
</g>
</g>
<defs>
<clipPath id="clip0_1_227">
<rect width="134.06" height="191.44" fill="white"/>
</clipPath>
</defs>
</svg>
