<svg width="175" height="220" viewBox="0 0 175 220" fill="none" xmlns="http://www.w3.org/2000/svg">
<g clip-path="url(#clip0_1_724)">
<path d="M165.783 0H74.8901C69.8122 0 65.6884 4.17814 65.6884 9.35472V196.157C65.6884 201.319 69.8122 205.512 74.8901 205.512H165.798C170.876 205.512 175 201.319 175 196.157V9.35472C175 4.17814 170.876 0 165.798 0H165.783ZM169.245 190.382C169.245 195.297 165.552 199.276 161.013 199.276H79.6755C75.1209 199.276 71.4279 195.297 71.4279 190.382V16.4361C71.4279 6.42081 75.1209 5.92927 79.6755 5.92927H95.9707C96.9247 5.92927 97.6941 7.00452 97.6941 8.34091V8.90926C97.6941 12.0275 99.4021 12.0429 101.51 12.0429H139.178C141.302 12.0429 142.994 12.0429 142.994 8.90926V8.34091C142.994 7.00452 143.764 5.92927 144.718 5.92927H161.013C165.568 5.92927 169.245 7.26566 169.245 16.4361V190.382Z" fill="#37474F"/>
<path d="M125.484 8.14124H115.205C114.851 8.14124 114.574 7.86474 114.574 7.51145C114.574 7.15815 114.851 6.88165 115.205 6.88165H125.484C125.837 6.88165 126.114 7.15815 126.114 7.51145C126.114 7.86474 125.837 8.14124 125.484 8.14124Z" fill="#263238"/>
<path d="M169.245 16.4365V190.382C169.245 195.298 165.552 199.276 161.013 199.276H79.6909C75.1363 199.276 71.4433 195.298 71.4433 190.382V16.4365C71.4433 6.42123 75.1363 5.92969 79.6909 5.92969H95.9861C96.9401 5.92969 97.7095 7.00494 97.7095 8.34133V8.90968C97.7095 12.0279 99.4175 12.0433 101.526 12.0433H139.194C141.317 12.0433 143.01 12.0433 143.01 8.90968V8.34133C143.01 7.00494 143.779 5.92969 144.733 5.92969H161.028C165.583 5.92969 169.261 7.26608 169.261 16.4365H169.245Z" fill="white"/>
<path d="M169.245 16.4365V38.1874H71.4277V16.4365C71.4277 6.42123 75.1207 5.92969 79.6753 5.92969H95.9705C96.9245 5.92969 97.6939 7.00494 97.6939 8.34133V8.90968C97.6939 12.0279 99.4019 12.0433 101.495 12.0433H139.163C141.286 12.0433 142.979 12.0433 142.979 8.90968V8.34133C142.979 7.00494 143.748 5.92969 144.702 5.92969H160.997C165.552 5.92969 169.23 7.26608 169.23 16.4365H169.245Z" fill="#FF748E"/>
<path d="M81.3372 28.5869L78.4443 25.8834L81.3372 23.1799L81.7834 23.6714L79.3983 25.8834L81.7834 28.1107L81.3372 28.5869Z" fill="white"/>
<path d="M161.674 24.209C161.674 24.5163 161.413 24.7774 161.105 24.7774C160.797 24.7774 160.536 24.5163 160.536 24.209C160.536 23.9018 160.797 23.6407 161.105 23.6407C161.413 23.6407 161.674 23.9018 161.674 24.209Z" fill="white"/>
<path d="M161.674 26.2217C161.674 26.5289 161.413 26.7901 161.105 26.7901C160.797 26.7901 160.536 26.5289 160.536 26.2217C160.536 25.9145 160.797 25.6534 161.105 25.6534C161.413 25.6534 161.674 25.9145 161.674 26.2217Z" fill="white"/>
<path d="M161.674 28.2489C161.674 28.5561 161.413 28.8173 161.105 28.8173C160.797 28.8173 160.536 28.5561 160.536 28.2489C160.536 27.9417 160.797 27.6806 161.105 27.6806C161.413 27.6806 161.674 27.9417 161.674 28.2489Z" fill="white"/>
<path d="M93.1546 9.8316C93.1546 9.8316 93.0469 9.93912 93.0007 9.9852C92.97 10.0159 92.9392 10.0466 92.9084 10.0774C92.493 9.66263 91.9852 9.44758 91.3851 9.44758C90.8004 9.44758 90.2926 9.66263 89.8617 10.0774C89.831 10.0466 89.8002 10.0159 89.7694 9.9852C89.7232 9.93912 89.6617 9.87768 89.6155 9.8316C89.6771 9.77015 89.7386 9.70871 89.8156 9.66263C89.9541 9.53974 90.1079 9.44758 90.2772 9.37077C90.4772 9.27861 90.6773 9.2018 90.8927 9.17108C91.0004 9.15572 91.0927 9.14036 91.2004 9.125C91.2312 9.125 91.462 9.125 91.462 9.125C91.5389 9.125 91.6005 9.125 91.6774 9.14036C91.8621 9.15572 92.0621 9.2018 92.2314 9.27861C92.3699 9.32469 92.493 9.38613 92.6161 9.46294C92.7392 9.53974 92.8623 9.61655 92.97 9.70871C93.0315 9.75479 93.0777 9.80088 93.1392 9.86232L93.1546 9.8316Z" fill="white"/>
<path d="M90.3847 10.5685C90.3077 10.4917 90.2154 10.3996 90.1385 10.3228C90.4155 10.0463 90.754 9.86193 91.1541 9.81585C91.7388 9.73905 92.2465 9.90802 92.6774 10.3228C92.6005 10.3996 92.5081 10.4917 92.4312 10.5685C92.1542 10.292 91.8157 10.1538 91.4156 10.1538C91.0156 10.1538 90.677 10.3074 90.4001 10.5685H90.3847Z" fill="white"/>
<path d="M92.1698 10.8147C92.0929 10.8915 92.0006 10.9837 91.9236 11.0605C91.7852 10.9222 91.6005 10.8454 91.4005 10.8454C91.2004 10.8454 91.0158 10.9222 90.8773 11.0605C90.8004 10.9837 90.708 10.8915 90.6311 10.8147C91.0312 10.3999 91.739 10.3692 92.1698 10.8147Z" fill="white"/>
<path d="M91.6159 11.2909C91.6159 11.4138 91.5082 11.5213 91.3851 11.5213C91.262 11.5213 91.1543 11.4138 91.1543 11.2909C91.1543 11.168 91.262 11.0605 91.3851 11.0605C91.5082 11.0605 91.6159 11.1526 91.6159 11.2909Z" fill="white"/>
<path d="M77.8134 10.3082C77.8134 9.95494 78.1058 9.66309 78.4597 9.66309C78.8136 9.66309 79.106 9.95494 79.106 10.3082C79.106 10.6615 78.8136 10.9534 78.4597 10.9534C78.1058 10.9534 77.8134 10.6615 77.8134 10.3082Z" fill="white"/>
<path d="M79.86 10.3082C79.86 9.95494 80.1523 9.66309 80.5062 9.66309C80.8601 9.66309 81.1525 9.95494 81.1525 10.3082C81.1525 10.6615 80.8601 10.9534 80.5062 10.9534C80.1523 10.9534 79.86 10.6615 79.86 10.3082Z" fill="white"/>
<path d="M81.8911 10.3082C81.8911 9.95494 82.1834 9.66309 82.5373 9.66309C82.8913 9.66309 83.1836 9.95494 83.1836 10.3082C83.1836 10.6615 82.8913 10.9534 82.5373 10.9534C82.1834 10.9534 81.8911 10.6615 81.8911 10.3082Z" fill="white"/>
<path d="M83.9376 10.3082C83.9376 9.95494 84.23 9.66309 84.5839 9.66309C84.9378 9.66309 85.2301 9.95494 85.2301 10.3082C85.2301 10.6615 84.9378 10.9534 84.5839 10.9534C84.23 10.9534 83.9376 10.6615 83.9376 10.3082Z" fill="white"/>
<path d="M85.9841 10.3082C85.9841 9.95494 86.2765 9.66309 86.6304 9.66309C86.9843 9.66309 87.2766 9.95494 87.2766 10.3082C87.2766 10.6615 86.9843 10.9534 86.6304 10.9534C86.2765 10.9534 85.9841 10.6615 85.9841 10.3082Z" fill="white"/>
<path d="M161.905 11.7207H156.627V9.27832H161.905V11.7207ZM156.904 11.4442H161.628V9.55481H156.904V11.4442Z" fill="white"/>
<path d="M160.474 9.69336H157.074V11.3062H160.474V9.69336Z" fill="white"/>
<path d="M162.382 9.84668H161.905V11.1523H162.382V9.84668Z" fill="white"/>
<path d="M86.2919 188.646H85.5533V192.056H84.1684V190.321H81.7064V192.056H80.3062V188.646H79.5676L82.9374 185.175L86.2919 188.646Z" fill="#EBEBEB"/>
<path d="M161.12 185.175H153.011V186.327H161.12V185.175Z" fill="#EBEBEB"/>
<path d="M161.12 188.032H153.011V189.184H161.12V188.032Z" fill="#EBEBEB"/>
<path d="M161.12 190.904H153.011V192.056H161.12V190.904Z" fill="#EBEBEB"/>
<path d="M122.652 188.154L120.344 190.612L118.036 188.154L118.451 187.77L120.344 189.798L122.237 187.77L122.652 188.154Z" fill="#EBEBEB"/>
<path d="M120.344 193.147C118.036 193.147 116.159 191.273 116.159 188.969C116.159 186.665 118.036 184.791 120.344 184.791C122.652 184.791 124.529 186.665 124.529 188.969C124.529 191.273 122.652 193.147 120.344 193.147ZM120.344 185.344C118.344 185.344 116.713 186.972 116.713 188.969C116.713 190.966 118.344 192.594 120.344 192.594C122.344 192.594 123.975 190.966 123.975 188.969C123.975 186.972 122.344 185.344 120.344 185.344Z" fill="#EBEBEB"/>
<path d="M159.105 130.275V133.347H156.027" stroke="#FF748E" stroke-miterlimit="10"/>
<path d="M149.549 133.348H87.8922" stroke="#FF748E" stroke-miterlimit="10"/>
<path d="M84.6454 133.347H81.568V130.275" stroke="#FF748E" stroke-miterlimit="10"/>
<path d="M81.568 124.131V78.0025" stroke="#FF748E" stroke-miterlimit="10"/>
<path d="M81.568 74.9304V71.8582H84.6454" stroke="#FF748E" stroke-miterlimit="10"/>
<path d="M91.1389 71.8582H152.78" stroke="#FF748E" stroke-miterlimit="10"/>
<path d="M156.027 71.8582H159.105V74.9304" stroke="#FF748E" stroke-miterlimit="10"/>
<path d="M159.105 81.0897V127.203" stroke="#FF748E" stroke-miterlimit="10"/>
<path d="M91.4774 110.46C91.4774 114.377 94.5087 117.572 98.3555 117.864L140.471 117.879C145.302 117.879 149.211 113.978 149.211 109.154C149.211 104.607 145.733 100.875 141.286 100.46C141.04 92.5646 134.547 86.2359 126.576 86.2359C120.236 86.2359 114.82 90.2451 112.758 95.8672C111.589 95.2681 110.25 94.9455 108.85 94.9455C104.203 94.9455 100.402 98.5553 100.125 103.133C99.7404 103.071 99.3249 103.041 98.9095 103.041C94.801 103.041 91.4774 106.359 91.4774 110.46Z" fill="#FF748E"/>
<path d="M124.145 108.202H116.543V117.879H124.145V108.202Z" fill="white"/>
<path d="M113.928 108.201H126.745L120.344 101.827L113.928 108.201Z" fill="white"/>
<path d="M102.433 27.911C101.571 27.911 100.894 27.2197 100.894 26.3749V24.4855C100.894 24.3166 101.018 24.1937 101.187 24.1937C101.356 24.1937 101.479 24.3166 101.479 24.4855V26.3749C101.479 26.8972 101.91 27.3119 102.418 27.3119C102.926 27.3119 103.356 26.8818 103.356 26.3749V24.4855C103.356 24.3166 103.495 24.1937 103.649 24.1937C103.803 24.1937 103.941 24.3166 103.941 24.4855V26.3749C103.941 27.2197 103.249 27.911 102.402 27.911H102.433Z" fill="white"/>
<path d="M106.465 26.4671H105.818V27.6191C105.818 27.7727 105.68 27.911 105.526 27.911C105.372 27.911 105.234 27.7727 105.234 27.6191V24.4855C105.234 24.3166 105.372 24.1937 105.526 24.1937H106.48C107.111 24.1937 107.619 24.7006 107.619 25.3304C107.619 25.9602 107.111 26.4671 106.48 26.4671H106.465ZM105.818 25.8834H106.465C106.772 25.8834 107.019 25.6376 107.019 25.3457C107.019 25.0385 106.772 24.7927 106.465 24.7927H105.818V25.8834Z" fill="white"/>
<path d="M108.327 27.6191V24.4855C108.327 24.3319 108.45 24.1937 108.619 24.1937C108.788 24.1937 108.911 24.3319 108.911 24.4855V27.3119H110.358C110.512 27.3119 110.65 27.4502 110.65 27.6038C110.65 27.7574 110.512 27.8956 110.358 27.8956H108.619C108.45 27.8956 108.327 27.7574 108.327 27.6038V27.6191Z" fill="white"/>
<path d="M114.035 24.6545C114.358 25.0078 114.574 25.4686 114.574 25.9909C114.574 26.5132 114.374 26.9893 114.035 27.3273C113.727 27.6652 113.25 27.8956 112.758 27.8956C112.266 27.8956 111.773 27.6652 111.45 27.3273C111.127 26.9893 110.927 26.5132 110.927 25.9909C110.927 25.4686 111.127 24.9924 111.45 24.6545C111.773 24.3012 112.235 24.0862 112.758 24.0862C113.281 24.0862 113.712 24.3012 114.035 24.6545ZM113.974 25.9909C113.974 25.6376 113.835 25.2997 113.62 25.0692C113.389 24.8235 113.097 24.6852 112.773 24.6852C112.435 24.6852 112.143 24.8235 111.912 25.0692C111.681 25.2997 111.558 25.6376 111.558 25.9909C111.558 26.3442 111.696 26.6821 111.912 26.9125C112.143 27.1583 112.435 27.2966 112.773 27.2966C113.097 27.2966 113.389 27.1583 113.62 26.9125C113.835 26.6821 113.974 26.3442 113.974 25.9909Z" fill="white"/>
<path d="M117.313 27.0354H116.02L115.759 27.7267C115.712 27.8496 115.605 27.911 115.482 27.911C115.451 27.911 115.42 27.911 115.374 27.8956C115.22 27.8342 115.143 27.6652 115.205 27.5116L116.374 24.3934C116.42 24.2705 116.543 24.209 116.651 24.209C116.774 24.209 116.882 24.2705 116.928 24.3934L118.097 27.5116C118.144 27.6652 118.082 27.8342 117.928 27.8956C117.897 27.8956 117.867 27.911 117.82 27.911C117.697 27.911 117.59 27.8496 117.544 27.7267L117.282 27.0354H117.313ZM117.097 26.4517L116.666 25.315L116.236 26.4517H117.097Z" fill="white"/>
<path d="M118.836 27.6191V24.4855C118.836 24.3166 118.959 24.1937 119.128 24.1937H119.759C120.79 24.1937 121.621 25.0231 121.621 26.0523C121.621 27.0815 120.79 27.911 119.759 27.911H119.128C118.959 27.911 118.836 27.7727 118.836 27.6191ZM119.421 27.3273H119.744C120.452 27.3273 121.006 26.7589 121.006 26.0523C121.006 25.3457 120.436 24.7927 119.744 24.7927H119.421V27.3273Z" fill="white"/>
<path d="M125.468 27.8495C125.468 27.8495 125.453 27.8342 125.437 27.8188C125.437 27.8188 125.437 27.8188 125.437 27.8035C125.437 27.8035 125.422 27.7881 125.406 27.7727C125.406 27.7727 125.391 27.742 125.376 27.7267L124.068 24.6238C124.006 24.4855 124.068 24.3012 124.222 24.2398C124.36 24.1783 124.529 24.2398 124.606 24.3934L125.637 26.8511L126.668 24.3934C126.73 24.2398 126.914 24.1783 127.053 24.2398C127.207 24.3012 127.268 24.4702 127.207 24.6238L125.899 27.7267C125.899 27.7267 125.899 27.7574 125.883 27.7727C125.883 27.7727 125.868 27.7881 125.853 27.8035C125.853 27.8035 125.853 27.8086 125.853 27.8188C125.853 27.8188 125.837 27.8342 125.822 27.8495C125.822 27.8495 125.791 27.8803 125.776 27.8803C125.776 27.8803 125.745 27.8803 125.73 27.8803C125.73 27.8803 125.699 27.8803 125.683 27.8803C125.668 27.8803 125.653 27.8803 125.637 27.8803C125.637 27.8803 125.606 27.8803 125.591 27.8803C125.591 27.8803 125.56 27.8649 125.545 27.8495H125.468Z" fill="white"/>
<path d="M128.022 24.4855C128.022 24.3166 128.145 24.1937 128.315 24.1937C128.484 24.1937 128.607 24.3166 128.607 24.4855V27.6191C128.607 27.7881 128.469 27.911 128.315 27.911C128.161 27.911 128.022 27.7881 128.022 27.6191V24.4855Z" fill="white"/>
<path d="M129.607 27.6191V24.4855C129.607 24.3166 129.73 24.1937 129.9 24.1937H130.53C131.561 24.1937 132.392 25.0231 132.392 26.0523C132.392 27.0815 131.561 27.911 130.53 27.911H129.9C129.73 27.911 129.607 27.7727 129.607 27.6191ZM130.192 27.3273H130.515C131.223 27.3273 131.777 26.7589 131.777 26.0523C131.777 25.3457 131.207 24.7927 130.515 24.7927H130.192V27.3273Z" fill="white"/>
<path d="M133.162 27.6191V24.4855C133.162 24.3166 133.285 24.1937 133.454 24.1937H135.193C135.347 24.1937 135.485 24.3166 135.485 24.4855C135.485 24.6545 135.347 24.7774 135.193 24.7774H133.746V25.7451H134.977C135.131 25.7451 135.27 25.8834 135.27 26.037C135.27 26.2059 135.131 26.3288 134.977 26.3288H133.746V27.3119H135.193C135.347 27.3119 135.485 27.4502 135.485 27.6038C135.485 27.7574 135.347 27.8956 135.193 27.8956H133.469C133.3 27.8956 133.177 27.7727 133.177 27.6038L133.162 27.6191Z" fill="white"/>
<path d="M139.24 24.6545C139.563 25.0078 139.778 25.4686 139.778 25.9909C139.778 26.5132 139.578 26.9893 139.24 27.3273C138.932 27.6652 138.455 27.8956 137.963 27.8956C137.47 27.8956 136.978 27.6652 136.655 27.3273C136.331 26.9893 136.131 26.5132 136.131 25.9909C136.131 25.4686 136.331 24.9924 136.655 24.6545C136.978 24.3012 137.439 24.0862 137.963 24.0862C138.486 24.0862 138.917 24.3012 139.24 24.6545ZM139.178 25.9909C139.178 25.6376 139.04 25.2997 138.824 25.0692C138.593 24.8235 138.301 24.6852 137.978 24.6852C137.639 24.6852 137.347 24.8235 137.116 25.0692C136.885 25.2997 136.762 25.6376 136.762 25.9909C136.762 26.3442 136.901 26.6821 137.116 26.9125C137.347 27.1583 137.639 27.2966 137.978 27.2966C138.301 27.2966 138.593 27.1583 138.824 26.9125C139.04 26.6821 139.178 26.3442 139.178 25.9909Z" fill="white"/>
<path d="M112.358 143.916C111.65 143.916 111.081 143.347 111.081 142.641V141.074C111.081 140.936 111.189 140.828 111.327 140.828C111.466 140.828 111.573 140.936 111.573 141.074V142.641C111.573 143.071 111.927 143.424 112.358 143.424C112.789 143.424 113.143 143.071 113.143 142.641V141.074C113.143 140.936 113.25 140.828 113.389 140.828C113.527 140.828 113.635 140.936 113.635 141.074V142.641C113.635 143.347 113.066 143.916 112.358 143.916Z" fill="#C7C7C7"/>
<path d="M114.62 144.515V142.825V141.949C114.62 141.826 114.728 141.719 114.851 141.719C114.974 141.719 115.082 141.796 115.097 141.903C115.266 141.796 115.466 141.719 115.697 141.719C116.282 141.719 116.759 142.226 116.759 142.825C116.759 143.424 116.282 143.915 115.697 143.915C115.482 143.915 115.266 143.854 115.112 143.731V144.499C115.112 144.622 115.005 144.73 114.866 144.73C114.743 144.73 114.635 144.622 114.635 144.499L114.62 144.515ZM115.112 142.825C115.112 142.994 115.174 143.163 115.282 143.27C115.389 143.393 115.543 143.455 115.697 143.455C115.851 143.455 115.989 143.393 116.112 143.27C116.22 143.163 116.282 143.009 116.282 142.825C116.282 142.64 116.205 142.502 116.112 142.379C116.005 142.256 115.851 142.195 115.697 142.195C115.528 142.195 115.389 142.256 115.282 142.379C115.174 142.487 115.112 142.656 115.112 142.825Z" fill="#C7C7C7"/>
<path d="M117.728 140.828C117.867 140.828 117.974 140.936 117.974 141.074V143.67C117.974 143.808 117.867 143.916 117.728 143.916C117.59 143.916 117.482 143.808 117.482 143.67V141.074C117.482 140.936 117.59 140.828 117.728 140.828Z" fill="#C7C7C7"/>
<path d="M118.759 143.593C118.575 143.393 118.451 143.132 118.451 142.825C118.451 142.518 118.559 142.272 118.759 142.057C118.959 141.857 119.221 141.719 119.513 141.719C119.806 141.719 120.067 141.842 120.252 142.057C120.452 142.272 120.56 142.533 120.56 142.825C120.56 143.117 120.452 143.409 120.252 143.593C120.067 143.793 119.806 143.931 119.513 143.931C119.221 143.931 118.959 143.808 118.759 143.593ZM118.928 142.825C118.928 143.009 118.99 143.163 119.082 143.286C119.19 143.393 119.344 143.455 119.513 143.455C119.667 143.455 119.806 143.393 119.913 143.286C120.021 143.163 120.082 143.009 120.082 142.825C120.082 142.64 120.021 142.487 119.913 142.364C119.806 142.272 119.667 142.195 119.513 142.195C119.344 142.195 119.205 142.272 119.082 142.364C118.975 142.487 118.928 142.64 118.928 142.825Z" fill="#C7C7C7"/>
<path d="M123.175 142.825V143.685C123.175 143.808 123.068 143.916 122.944 143.916C122.837 143.916 122.744 143.839 122.714 143.731C122.544 143.854 122.344 143.916 122.129 143.916C121.837 143.916 121.575 143.793 121.375 143.593C121.19 143.393 121.083 143.117 121.083 142.825C121.083 142.533 121.19 142.241 121.375 142.057C121.56 141.857 121.821 141.734 122.129 141.734C122.344 141.734 122.544 141.811 122.714 141.934C122.744 141.827 122.821 141.734 122.944 141.734C123.068 141.734 123.175 141.842 123.175 141.965V142.825ZM122.714 142.825C122.714 142.641 122.652 142.487 122.544 142.364C122.437 142.241 122.283 142.18 122.129 142.18C121.975 142.18 121.821 142.241 121.713 142.364C121.606 142.472 121.544 142.625 121.544 142.825C121.544 143.025 121.606 143.163 121.713 143.286C121.821 143.393 121.96 143.455 122.129 143.455C122.298 143.455 122.437 143.393 122.544 143.286C122.652 143.178 122.714 143.009 122.714 142.825Z" fill="#C7C7C7"/>
<path d="M126.037 143.686C126.037 143.808 125.929 143.916 125.806 143.916C125.683 143.916 125.591 143.839 125.575 143.732C125.406 143.839 125.191 143.916 124.975 143.916C124.375 143.916 123.898 143.409 123.898 142.825C123.898 142.242 124.375 141.719 124.975 141.719C125.191 141.719 125.406 141.796 125.56 141.904V141.074C125.56 140.951 125.668 140.844 125.806 140.844C125.945 140.844 126.037 140.951 126.037 141.074V142.825V143.686ZM124.96 142.196C124.806 142.196 124.652 142.257 124.545 142.38C124.437 142.487 124.375 142.641 124.375 142.825C124.375 143.01 124.437 143.148 124.545 143.255C124.652 143.363 124.806 143.44 124.96 143.44C125.114 143.44 125.268 143.378 125.375 143.255C125.483 143.148 125.545 142.994 125.545 142.825C125.545 142.656 125.483 142.487 125.375 142.38C125.268 142.272 125.129 142.196 124.96 142.196Z" fill="#C7C7C7"/>
<path d="M127.237 143.286C127.422 143.286 127.561 143.44 127.561 143.609C127.561 143.778 127.407 143.931 127.237 143.931C127.068 143.931 126.914 143.793 126.914 143.609C126.914 143.424 127.053 143.286 127.237 143.286Z" fill="#C7C7C7"/>
<path d="M128.253 143.286C128.438 143.286 128.576 143.44 128.576 143.609C128.576 143.778 128.422 143.931 128.253 143.931C128.084 143.931 127.93 143.793 127.93 143.609C127.93 143.424 128.068 143.286 128.253 143.286Z" fill="#C7C7C7"/>
<path d="M129.253 143.286C129.438 143.286 129.576 143.44 129.576 143.609C129.576 143.778 129.422 143.931 129.253 143.931C129.084 143.931 128.93 143.793 128.93 143.609C128.93 143.424 129.068 143.286 129.253 143.286Z" fill="#C7C7C7"/>
<path d="M154.673 147.126H86.0149V151.458H154.673V147.126Z" fill="#EBEBEB"/>
<path d="M109.065 147.894H86.8459V150.689H109.065V147.894Z" fill="#FF748E"/>
<path opacity="0.1" d="M91.3083 147.894H89.0156L86.8459 150.689H89.154L91.3083 147.894Z" fill="black"/>
<path opacity="0.1" d="M95.7552 147.894H93.4625L91.2775 150.689H93.5856L95.7552 147.894Z" fill="black"/>
<path opacity="0.1" d="M100.202 147.894H97.894L95.7244 150.689H98.0325L100.202 147.894Z" fill="black"/>
<path opacity="0.1" d="M104.634 147.894H102.341L100.171 150.689H102.464L104.634 147.894Z" fill="black"/>
<path opacity="0.1" d="M109.081 147.894H106.773L104.603 150.689H106.911L109.081 147.894Z" fill="black"/>
<path opacity="0.1" d="M131.268 150.688V150.674L131.254 150.688H131.268Z" fill="black"/>
<path d="M57.1792 183.5C57.1792 183.5 55.5482 206.173 55.5482 206.188C55.5328 210.627 55.5789 214.514 55.8097 216.526C55.8097 216.526 55.8097 216.541 55.8097 216.557C55.8867 217.309 55.9944 217.801 56.1329 217.924C56.1329 217.924 56.1483 217.939 56.1636 217.954C57.487 218.861 93.0163 220.074 94.2626 219.69C95.5244 219.322 94.5396 215.727 93.2009 214.575C91.8468 213.423 78.4599 206.895 78.4599 206.895L79.8755 184.238L57.1792 183.5Z" fill="#FFD7D6"/>
<path d="M94.2471 219.706C92.9854 220.075 57.4714 218.861 56.1481 217.955C56.1481 217.955 56.1327 217.94 56.1174 217.924C55.9789 217.801 55.8865 217.31 55.7942 216.557C55.7942 216.557 55.7942 216.542 55.7942 216.526C55.5788 214.514 55.5172 210.628 55.5326 206.189C55.5326 206.189 55.8096 202.256 56.1481 197.663L78.9521 198.723L78.4444 206.895C78.4444 206.895 91.8313 213.439 93.1854 214.576C94.5241 215.728 95.5089 219.322 94.2471 219.691V219.706Z" fill="#EBEBEB"/>
<path d="M94.4165 219.767C93.1394 220.136 57.0561 219.137 55.7174 218.216C55.2096 217.862 55.0865 205.789 55.8097 199.675L79.06 200.581C79.06 200.581 79.0292 206.803 79.3062 206.941C81.5835 208.108 92.1392 213.515 93.3548 214.56C94.7089 215.727 95.6937 219.383 94.4165 219.752V219.767Z" fill="#FF748E"/>
<path d="M93.9397 218.308C87.9079 217.924 63.5036 216.987 57.518 217.063C57.4718 217.063 57.4718 217.094 57.518 217.094C63.4882 217.601 87.8925 218.354 93.9397 218.4C94.0628 218.4 94.0782 218.308 93.9397 218.308Z" fill="#263238"/>
<path d="M91.0774 213.177C89.6464 213.069 88.2154 213.684 87.3999 214.513C86.6151 215.297 85.9381 216.433 85.9227 217.678C85.9227 217.708 85.9842 217.724 85.9996 217.678C86.4305 215.327 88.6616 213.33 91.0621 213.238C91.1082 213.238 91.1082 213.161 91.0621 213.161L91.0774 213.177Z" fill="#263238"/>
<path d="M80.7372 207.401C78.3214 207.278 75.4747 208.016 73.9052 209.936C73.8437 210.012 73.9514 210.089 74.0283 210.059C76.2595 209.014 78.3675 208.261 80.768 207.693C80.9372 207.647 80.9064 207.401 80.7372 207.401Z" fill="#263238"/>
<path d="M82.5837 208.2C80.1679 208.077 77.3212 208.814 75.7517 210.734C75.6901 210.811 75.7979 210.888 75.8748 210.857C78.106 209.813 80.214 209.06 82.6144 208.492C82.7837 208.446 82.7529 208.2 82.5837 208.2Z" fill="#263238"/>
<path d="M84.4148 208.999C81.9989 208.876 79.1523 209.613 77.5828 211.533C77.5212 211.61 77.6289 211.687 77.7059 211.656C79.937 210.612 82.0451 209.859 84.4455 209.291C84.6148 209.244 84.584 208.999 84.4148 208.999Z" fill="#263238"/>
<path d="M86.2612 209.797C83.8454 209.675 80.9988 210.412 79.4292 212.332C79.3677 212.409 79.4754 212.486 79.5524 212.455C81.7835 211.41 83.8916 210.658 86.292 210.089C86.4613 210.043 86.4305 209.797 86.2612 209.797Z" fill="#263238"/>
<path d="M59.5642 202.056C56.8561 201.963 56.7022 206.172 59.4104 206.264C62.1185 206.357 62.2724 202.148 59.5642 202.056Z" fill="#263238"/>
<path d="M83.5838 201.058C82.399 199.998 80.8141 200.919 80.0293 201.949C79.6754 202.409 79.3369 202.916 79.0446 203.469C78.3829 204.698 77.8905 206.081 77.6751 207.402C77.6597 207.509 77.6289 207.617 77.6289 207.709C77.6135 207.74 77.6135 207.77 77.6289 207.786C77.6135 207.878 77.5982 207.955 77.5828 208.031C77.5828 208.077 77.6135 208.108 77.6597 208.093C77.6905 208.2 77.7674 208.308 77.8905 208.339C77.9521 208.354 78.0136 208.339 78.0752 208.308C78.5676 208.001 79.0753 207.693 79.5831 207.386L79.8601 207.217C81.0911 206.465 82.3221 205.666 83.2453 204.56C84.0454 203.607 84.6917 202.025 83.5684 201.027L83.5838 201.058ZM80.4294 206.081C80.0294 206.342 79.6293 206.603 79.2446 206.849C78.8599 207.094 78.4906 207.34 78.1213 207.601C78.0752 207.617 78.0444 207.663 77.9982 207.693C77.9521 207.724 77.9059 207.755 77.8597 207.786C77.8751 207.74 77.8905 207.693 77.9059 207.647C77.9059 207.647 77.9059 207.632 77.9059 207.617C78.2752 206.68 78.6291 205.712 79.0753 204.806C79.1523 204.621 79.2446 204.437 79.3369 204.253C79.6139 203.715 79.9216 203.162 80.2755 202.655C80.8295 201.887 83.2915 199.952 83.43 202.578C83.5069 204.038 81.4296 205.389 80.414 206.065L80.4294 206.081Z" fill="#263238"/>
<path d="M78.1215 207.924C78.1215 207.924 78.1676 207.847 78.1215 207.817C78.0753 207.771 78.0291 207.725 77.983 207.678L77.9368 207.632C77.9368 207.632 77.9214 207.617 77.9061 207.617C77.8291 207.54 77.7522 207.463 77.6752 207.402C76.2134 206.112 74.2285 205.052 72.382 204.637C71.1202 204.345 69.3045 204.622 69.0583 206.188C68.8121 207.678 70.3201 208.493 71.5511 208.723C72.7821 208.969 74.0438 208.877 75.2902 208.723C76.1673 208.615 77.0444 208.477 77.9061 208.37C77.9061 208.37 77.9112 208.37 77.9214 208.37C78.1369 208.339 78.1984 208.109 78.1215 207.94V207.924ZM74.6901 208.078C73.4745 208.201 70.9971 208.462 70.1355 207.279C68.5813 205.144 71.705 205.082 72.6282 205.344C73.2283 205.513 73.813 205.743 74.367 205.989C75.5056 206.48 76.552 207.11 77.6291 207.709C77.6291 207.709 77.706 207.755 77.7522 207.771C77.706 207.771 77.6599 207.771 77.6291 207.771C77.506 207.771 77.3829 207.771 77.2598 207.786C76.3981 207.863 75.5518 207.97 74.6747 208.047L74.6901 208.078Z" fill="#263238"/>
<path d="M55.5022 196.358L80.9066 197.402C80.9066 197.402 82.0761 161.995 81.5221 147.111C80.9066 130.936 73.9516 82.7951 73.9516 82.7951H52.9479C52.9479 82.7951 58.3181 131.12 58.4258 147.31C58.5335 162.318 55.5176 196.373 55.5176 196.373L55.5022 196.358Z" fill="#37474F"/>
<path d="M69.8121 82.7951L57.1945 126.374C55.702 105.76 52.9323 82.7951 52.9323 82.7951H69.8121Z" fill="#263238"/>
<path d="M56.9174 85.1604L58.2561 99.5227L59.487 113.9C60.2718 123.486 61.0258 133.086 61.5951 142.687C61.7336 145.083 61.8259 147.494 61.7798 149.922C61.7336 152.333 61.6259 154.729 61.5028 157.141C61.2566 161.949 60.9488 166.742 60.5795 171.55C60.2103 176.342 58.8716 190.474 58.8716 190.474C58.8716 190.474 59.841 176.327 60.1641 171.519C60.4718 166.726 60.795 161.918 61.0104 157.126C61.1181 154.729 61.2104 152.318 61.2566 149.922C61.2874 147.525 61.195 145.129 61.0412 142.733C60.518 133.132 59.764 123.547 59.0562 113.947L56.902 85.1604H56.9174Z" fill="#263238"/>
<path d="M80.1063 192.64C76.2287 192.379 77.3519 192.394 73.4743 192.179C71.5817 192.072 59.1026 191.381 57.3176 191.58C57.2715 191.58 57.2715 191.657 57.3176 191.657C59.0718 192.041 71.5509 192.517 73.4589 192.579C77.3365 192.717 76.2287 192.64 80.1063 192.748C80.1832 192.748 80.1832 192.64 80.1063 192.64Z" fill="#263238"/>
<path d="M16.8182 170.659L5.23157 190.229C3.23122 194.192 1.53862 197.709 0.846188 199.599C0.846188 199.599 0.846188 199.614 0.846188 199.629C0.584604 200.351 0.461505 200.828 0.523054 200.996V201.027C1.30781 202.425 32.5594 219.307 33.852 219.537C35.1445 219.767 35.8831 216.111 35.1907 214.483C34.4982 212.855 25.4197 201.043 25.4197 201.043L36.8063 181.396L16.8336 170.644L16.8182 170.659Z" fill="#FFD7D6"/>
<path d="M33.8519 219.552C32.5593 219.337 1.2923 202.44 0.522932 201.042C0.522932 201.042 0.522932 201.027 0.522932 201.011C0.461383 200.842 0.584482 200.351 0.846066 199.644C0.846066 199.644 0.846066 199.629 0.846066 199.614C1.55388 197.709 3.2311 194.207 5.23145 190.244C5.23145 190.244 7.24719 186.849 9.58606 182.886L29.528 193.992L25.4196 201.088C25.4196 201.088 34.4827 212.901 35.1906 214.514C35.883 216.142 35.1444 219.798 33.8519 219.567V219.552Z" fill="#EBEBEB"/>
<path d="M33.9751 219.675C32.6672 219.445 0.815424 202.502 0.0152834 201.074C-0.292463 200.536 5.00078 189.676 8.38599 184.515L28.7896 195.667C28.7896 195.667 25.9891 201.227 26.1737 201.473C27.6971 203.531 34.7291 213.07 35.36 214.545C36.0524 216.189 35.2984 219.906 33.9905 219.675H33.9751Z" fill="#FF748E"/>
<path d="M34.2059 218.154C28.9742 215.128 7.55505 203.423 2.1541 200.843C2.10794 200.827 2.09255 200.843 2.13871 200.873C7.26269 203.976 28.7742 215.512 34.1751 218.246C34.2828 218.308 34.329 218.216 34.2213 218.154H34.2059Z" fill="#263238"/>
<path d="M33.9289 212.302C32.6979 211.565 31.1438 211.488 30.0513 211.872C29.005 212.225 27.8817 212.932 27.3124 214.053C27.297 214.084 27.3585 214.114 27.3739 214.084C28.805 212.179 31.6978 211.38 33.8982 212.363C33.9443 212.379 33.9751 212.317 33.9289 212.302Z" fill="#263238"/>
<path d="M27.2508 202.532C25.1427 201.349 22.2653 200.75 20.0034 201.764C19.9111 201.81 19.9726 201.933 20.0495 201.933C22.5115 201.994 24.7427 202.256 27.1431 202.809C27.3124 202.855 27.4047 202.609 27.2508 202.532Z" fill="#263238"/>
<path d="M28.5433 204.054C26.4352 202.871 23.5578 202.272 21.2959 203.285C21.2035 203.332 21.2651 203.454 21.342 203.454C23.804 203.516 26.0352 203.777 28.4356 204.33C28.6048 204.376 28.6972 204.13 28.5433 204.054Z" fill="#263238"/>
<path d="M29.8358 205.59C27.7277 204.407 24.8503 203.808 22.5883 204.822C22.496 204.868 22.5576 204.991 22.6345 204.991C25.0965 205.052 27.3276 205.313 29.7281 205.866C29.8973 205.912 29.9896 205.666 29.8358 205.59Z" fill="#263238"/>
<path d="M31.1282 207.125C29.0202 205.942 26.1428 205.343 23.8808 206.357C23.7885 206.403 23.85 206.526 23.927 206.526C26.389 206.587 28.6201 206.848 31.0205 207.401C31.1898 207.447 31.2821 207.202 31.1282 207.125Z" fill="#263238"/>
<path d="M10.6787 188.324C8.29362 187.033 6.27789 190.735 8.66292 192.026C11.048 193.316 13.0637 189.614 10.6787 188.324Z" fill="#263238"/>
<path d="M32.6364 198.124C32.0516 196.649 30.2205 196.772 29.0511 197.34C28.5279 197.586 28.0048 197.909 27.497 198.262C26.3583 199.061 25.2966 200.09 24.5119 201.181C24.4503 201.273 24.3888 201.35 24.3272 201.442C24.2964 201.457 24.281 201.488 24.281 201.503C24.2195 201.58 24.1733 201.641 24.1272 201.703C24.1118 201.749 24.1272 201.78 24.1733 201.795C24.1426 201.903 24.1733 202.041 24.281 202.118C24.3272 202.164 24.3888 202.179 24.4657 202.179C25.035 202.118 25.6351 202.072 26.2352 202.025L26.5584 201.995C28.0048 201.872 29.4512 201.703 30.7745 201.119C31.9285 200.628 33.2057 199.506 32.6364 198.108V198.124ZM27.5739 201.211C27.0969 201.273 26.6353 201.319 26.1583 201.38C25.7121 201.426 25.2504 201.488 24.8196 201.565C24.7734 201.565 24.7273 201.565 24.6657 201.58C24.6196 201.58 24.558 201.58 24.5119 201.611C24.5426 201.58 24.5888 201.549 24.6196 201.519C24.6196 201.519 24.6196 201.519 24.635 201.503C25.3889 200.827 26.1275 200.121 26.943 199.506C27.0969 199.383 27.2662 199.261 27.4354 199.138C27.9278 198.784 28.451 198.416 28.9896 198.124C29.8359 197.678 32.8979 197.033 31.8362 199.46C31.2515 200.797 28.7895 201.088 27.5739 201.242V201.211Z" fill="#263238"/>
<path d="M24.6811 201.841C24.6811 201.841 24.7581 201.795 24.7427 201.749C24.7273 201.688 24.6965 201.626 24.6811 201.565V201.503C24.6811 201.503 24.6504 201.488 24.6504 201.472C24.6196 201.365 24.5734 201.273 24.5426 201.181C23.8194 199.383 22.4961 197.555 21.0343 196.342C20.0342 195.512 18.2954 194.959 17.3721 196.25C16.4951 197.479 17.4799 198.876 18.4646 199.629C19.4648 200.397 20.6189 200.873 21.8191 201.303C22.65 201.595 23.4963 201.856 24.3118 202.148C24.5119 202.225 24.6811 202.041 24.6811 201.856V201.841ZM21.5421 200.443C20.4034 200.013 18.08 199.138 17.8184 197.709C17.3875 195.098 20.2034 196.449 20.9112 197.079C21.3729 197.494 21.7883 197.955 22.1884 198.431C22.9885 199.368 23.6502 200.413 24.3426 201.426C24.3426 201.426 24.3888 201.503 24.4195 201.549C24.3888 201.534 24.3426 201.519 24.2964 201.503C24.1887 201.457 24.081 201.396 23.9579 201.365C23.1578 201.042 22.3423 200.766 21.5267 200.443H21.5421Z" fill="#263238"/>
<path d="M71.7817 82.7644C71.7817 82.7644 71.7817 82.7644 71.7817 82.7798C71.6894 83.2099 70.2276 90.0147 68.7043 95.8518C67.5964 100.122 66.4577 103.87 65.8115 104.254C65.0729 104.684 61.4722 106.282 60.2566 106.789C60.2566 106.789 52.1475 147.218 47.8699 159.753C43.9153 171.319 32.7595 193.408 32.7595 193.408L9.69391 180.689C9.69391 180.689 22.3731 158.893 24.3272 153.255C27.3432 144.53 38.6682 101.919 38.6682 101.919C38.6682 101.919 38.5759 88.5708 43.0844 82.7491H71.8279L71.7817 82.7644Z" fill="#37474F"/>
<path d="M33.729 188.17C30.3438 186.281 31.344 186.772 27.928 184.929C26.2662 184.023 15.2796 178.078 13.587 177.51C13.5563 177.51 13.5255 177.556 13.5563 177.587C14.9873 178.677 26.0662 184.438 27.7434 185.313C31.1901 187.095 30.2207 186.542 33.6829 188.293C33.7444 188.324 33.806 188.232 33.729 188.186V188.17Z" fill="#263238"/>
<path d="M44.7156 98.2178C45.3618 98.0488 46.0543 98.0028 46.7159 97.8952C47.2545 97.8031 47.7777 97.7109 48.3162 97.6034C49.3164 97.3883 50.3166 97.0504 51.1321 96.4206C52.0553 95.714 52.5169 94.6234 52.9632 93.5788C53.2248 92.9644 53.5017 92.35 53.7787 91.7356C53.9172 91.4437 54.0403 91.1365 54.1788 90.8446C54.3327 90.5067 54.5635 90.138 54.6866 89.7847C54.7019 89.7386 54.7943 89.754 54.7635 89.8155C54.6558 90.0612 54.6096 90.3377 54.5327 90.5835C54.4404 90.8753 54.3634 91.1826 54.2711 91.4744C54.1018 91.9967 53.948 92.5343 53.7633 93.0566C53.4556 94.0089 53.1632 94.992 52.64 95.8522C51.6553 97.4037 49.9165 98.0335 48.1623 98.2639C47.6546 98.3253 47.1622 98.3561 46.6544 98.3868C46.0235 98.4175 45.3618 98.4789 44.7464 98.3868C44.654 98.3868 44.6233 98.2332 44.731 98.2178H44.7156Z" fill="#263238"/>
<path d="M67.7196 103.318C65.1499 104.209 62.6572 105.453 60.2876 106.774C60.1952 106.82 60.2568 106.974 60.3491 106.928C62.8572 105.853 65.4115 104.823 67.8427 103.61C68.0274 103.518 67.9043 103.241 67.7042 103.318H67.7196Z" fill="#263238"/>
<path d="M68.4736 86.1903C68.4736 86.0982 68.3197 86.0828 68.3197 86.1903C68.3351 89.155 68.1505 91.7663 67.9043 94.5466C67.7812 95.8369 66.7502 102.949 64.5191 102.427C64.1498 102.335 63.9497 101.966 63.8882 101.413C63.8112 100.737 64.0728 99.9075 64.1805 99.2316C64.4267 97.7416 64.6268 96.2516 64.7499 94.7463C64.9961 91.9353 64.9961 89.1242 64.6575 86.3286C64.6575 86.2364 64.5191 86.2364 64.5191 86.3286C64.5191 90.2148 64.4267 94.1011 63.842 97.9567C63.565 99.8153 62.6264 102.596 64.5652 102.888C66.5348 103.179 67.8119 98.5097 68.0581 97.2347C68.7352 93.671 68.7506 89.8308 68.4736 86.221V86.1903Z" fill="#263238"/>
<path d="M64.5652 102.611C64.3652 103.087 64.1959 103.579 64.0575 104.086C63.9497 104.47 63.8113 104.9 63.842 105.299C63.842 105.376 63.9497 105.391 63.9959 105.33C64.2575 104.992 64.3652 104.546 64.5191 104.147C64.6883 103.686 64.873 103.241 65.0269 102.78C65.1346 102.473 64.6883 102.319 64.5499 102.611H64.5652Z" fill="#263238"/>
<path d="M15.4181 177.526C18.788 171.182 24.0966 161.274 25.743 158.14C27.3741 155.037 28.4666 151.781 29.4975 148.448C31.5902 141.674 33.5598 134.853 35.4371 128.018C37.2989 121.182 39.0531 114.301 40.6995 107.404C41.115 105.683 41.5612 103.947 41.8997 102.212C42.2383 100.399 42.1459 98.7094 41.8997 96.8968C41.6689 95.2378 41.6074 93.6096 41.8536 91.9506C42.0998 90.307 42.5152 88.6941 43.0076 87.112C43.2692 86.2825 43.5462 85.453 43.8385 84.6235C43.8693 84.5313 44.0078 84.5774 43.977 84.6696C42.9615 88.0029 41.9151 91.3823 42.1305 94.9306C42.2383 96.6357 42.6845 98.2946 42.6537 100.015C42.6229 101.72 42.1767 103.394 41.792 105.038C40.1764 111.981 38.4376 118.893 36.5911 125.775C34.7446 132.657 32.7904 139.508 30.7131 146.328C29.713 149.646 28.759 153.01 27.3433 156.174C25.9123 159.338 20.5114 169.046 16.8646 175.237C16.4029 176.02 15.9413 176.804 15.4797 177.587C15.4489 177.633 15.372 177.587 15.4028 177.541L15.4181 177.526Z" fill="#263238"/>
<path d="M60.3951 47.3424C67.6272 51.3055 79.9678 58.6326 84.9841 59.2163C88.8463 59.6617 107.034 47.6189 112.512 42.9185C114.189 41.4746 104.757 31.1214 102.833 32.5039C97.5401 36.3133 83.2299 45.2687 82.5836 45.3916C80.214 45.8063 70.7354 43.2103 62.3032 41.5821C52.9015 39.7849 56.8868 45.4223 60.3951 47.3424Z" fill="#FFD7D6"/>
<path d="M73.5515 55.5754L79.2756 44.9457C79.2756 44.9457 65.1038 40.5679 58.7181 41.1055C52.3324 41.6431 56.2869 45.0379 59.5182 47.2652C62.7496 49.4925 73.5515 55.56 73.5515 55.56V55.5754Z" fill="#C7C7C7"/>
<path d="M73.5515 55.5754L79.2756 44.9457C79.2756 44.9457 65.1038 40.5679 58.7181 41.1055C52.3324 41.6431 56.2869 45.0379 59.5182 47.2652C62.7496 49.4925 73.5515 55.56 73.5515 55.56V55.5754Z" fill="#FF748E"/>
<path d="M79.2754 44.9611L79.2292 45.0532C79.0907 44.9918 78.9676 44.9303 78.8291 44.8843C78.6291 44.8075 78.4291 44.7153 78.2137 44.6538L77.5828 44.4542C77.3673 44.3927 77.1519 44.362 76.9365 44.3006L76.6134 44.2237C76.5057 44.2084 76.398 44.193 76.2902 44.1777C74.5669 43.9012 72.7819 44.0548 71.1047 44.5617C69.4275 45.0686 67.8426 45.8674 66.35 46.7736C65.1652 47.4802 64.0419 48.2483 62.9187 49.0317C62.8571 49.0778 62.7956 49.1085 62.7494 49.1546C62.7032 49.1853 62.6725 49.216 62.6263 49.2314L62.4109 49.0931C62.4109 49.0931 62.4878 49.0317 62.534 49.0163C62.5955 48.9702 62.6571 48.9395 62.7032 48.8934C63.8573 48.11 65.0267 47.3113 66.2269 46.5893C67.7349 45.683 69.3352 44.8843 71.0432 44.3927C72.6896 43.9165 74.4592 43.7629 76.1518 44.0241C77.6136 44.4234 78.6753 44.746 79.0907 44.8689C79.1523 44.8843 79.2138 44.915 79.26 44.9457L79.2754 44.9611ZM75.4901 51.4587C73.936 51.9656 72.428 52.58 70.9047 53.1791C70.5969 53.302 70.3046 53.4095 69.9968 53.5324L70.2584 53.686C70.5046 53.5938 70.7508 53.5017 70.9816 53.3941C72.4896 52.7797 73.9975 52.1653 75.5363 51.643C75.5824 51.6276 75.6286 51.6123 75.6747 51.5969L75.8132 51.3358C75.6901 51.3665 75.5824 51.3972 75.4747 51.4433L75.4901 51.4587ZM62.9187 49.0317C62.9187 49.0317 62.7802 48.9395 62.7186 48.8934C62.1801 48.5248 61.58 48.2329 60.9491 48.0332C60.826 48.0025 60.6875 47.9718 60.549 47.9411C60.7183 48.0486 60.9029 48.1715 61.103 48.2944C61.6107 48.4633 62.0877 48.7245 62.534 49.0163C62.6109 49.0624 62.6725 49.1085 62.734 49.1546C62.8725 49.2467 63.0264 49.3543 63.1649 49.4618C63.3033 49.5693 63.4264 49.6768 63.5649 49.7844C63.8111 49.938 64.0573 50.0762 64.3189 50.2298C63.9958 49.9072 63.6573 49.6 63.288 49.3082C63.1649 49.216 63.0418 49.1085 62.9187 49.0317Z" fill="white"/>
<path d="M71.4586 53.8703C72.1203 52.3189 72.982 50.8289 73.7975 49.3543C74.6284 47.8335 75.5516 46.3743 76.398 44.8689C76.4287 44.8228 76.4903 44.8689 76.4749 44.915C75.7055 46.4204 74.9977 47.9718 74.1668 49.4464C73.3205 50.9518 72.505 52.5032 71.5048 53.9011C71.5048 53.9164 71.4586 53.9011 71.4586 53.8857V53.8703Z" fill="#263238"/>
<path opacity="0.1" d="M76.4903 50.1223L73.5513 55.5754C73.5513 55.5754 62.7648 49.5079 59.5181 47.2805C57.5485 45.9288 55.3019 44.1316 55.3019 42.8105L76.4903 50.1223Z" fill="black"/>
<path d="M39.5915 86.9425C39.6838 87.0347 74.136 86.4203 74.4592 86.0516C74.9208 85.514 70.1045 53.456 65.2422 44.9C62.9187 40.8141 56.5483 38.6328 52.8554 44.9768C43.9923 60.1226 39.2991 86.62 39.5915 86.9579V86.9425Z" fill="#FF748E"/>
<path d="M74.4285 84.8838C74.2746 84.8838 74.1054 84.8991 73.9361 84.8991C73.8284 84.8991 73.7207 84.8991 73.5976 84.8991H73.259C73.0436 84.8684 72.8128 84.8684 72.5974 84.8531L71.9357 84.7762C71.7203 84.7609 71.5049 84.6994 71.2895 84.6534C70.8586 84.5766 70.4278 84.4383 70.0123 84.3154C69.5969 84.1618 69.1814 84.0236 68.7813 83.8239C68.3659 83.6549 67.9966 83.4399 67.5965 83.2402C67.2272 83.0098 66.8271 82.8101 66.4732 82.5489C66.1039 82.3185 65.75 82.0574 65.3807 81.7962C65.0268 81.5351 64.6729 81.274 64.3344 80.9975C63.9343 80.6749 63.5497 80.3523 63.1496 79.999C63.1034 79.953 63.0573 79.9222 63.0111 79.8761C62.1186 79.0928 61.2569 78.2786 60.4106 77.4491C59.1335 76.2356 57.8717 74.9914 56.5023 73.9162C55.8098 73.3785 55.0866 72.8716 54.3173 72.4722C54.1634 72.3954 54.0095 72.3186 53.8403 72.2418C53.7633 72.1957 53.6864 72.165 53.6094 72.1497C53.0401 71.9193 52.4554 71.7503 51.8399 71.6735C51.6245 71.6735 51.4091 71.6428 51.1936 71.6274H50.532C50.3166 71.6581 50.0857 71.6428 49.8703 71.6735L49.2241 71.7349L48.9009 71.781L48.5778 71.8425L47.9315 71.9653C47.5161 72.0882 47.0852 72.1804 46.6698 72.334C46.4851 72.3954 46.3005 72.4722 46.1158 72.5337C46.0389 72.5644 45.9466 72.5951 45.8696 72.6259C45.3157 72.8563 44.7925 73.1174 44.2539 73.3939C43.5154 73.7626 42.7768 74.1312 42.0074 74.4384C42.0074 74.3923 42.0228 74.3463 42.0382 74.3002C42.7768 74.0083 43.4846 73.6397 44.1924 73.271C44.6848 73.0099 45.1772 72.7641 45.685 72.549C45.7619 72.503 45.8388 72.4722 45.9158 72.4415C46.1466 72.3494 46.3774 72.2572 46.6082 72.1804C47.0237 72.0114 47.4545 71.9193 47.8854 71.7964L48.5316 71.6735L48.8548 71.612L49.1933 71.566L49.8549 71.4892C50.0704 71.4738 50.3012 71.4738 50.5166 71.4584H51.1782C51.409 71.4431 51.6245 71.4584 51.8553 71.4584C52.5169 71.5352 53.1478 71.7196 53.7479 71.9653C53.8249 72.0114 53.8864 72.0268 53.9633 72.0729C54.1018 72.1343 54.2403 72.2111 54.3788 72.2726C55.1636 72.6873 55.8868 73.2096 56.5792 73.7472C57.9641 74.8532 59.2104 76.0974 60.4722 77.3263C61.3493 78.1865 62.2263 79.0313 63.1496 79.8454C63.1957 79.8915 63.2419 79.9376 63.2881 79.9683C63.642 80.2755 63.9959 80.5981 64.3652 80.89C65.0422 81.443 65.7346 81.9806 66.4886 82.4568C66.8579 82.7025 67.2426 82.9022 67.6119 83.1326C68.012 83.3323 68.3967 83.5474 68.7967 83.701C69.1968 83.8853 69.6122 84.0236 70.0277 84.1772C70.4432 84.3001 70.874 84.4383 71.3049 84.5151C71.5203 84.5458 71.7357 84.6073 71.9511 84.638L72.5974 84.7148C72.8128 84.7302 73.0282 84.7302 73.259 84.7455H73.5822C73.6899 84.7455 73.7976 84.7455 73.9207 84.7455C74.0746 84.7455 74.2284 84.7455 74.3977 84.7148C74.3977 84.7609 74.3977 84.807 74.3977 84.8377L74.4285 84.8838ZM73.3821 77.2495C73.3821 77.2495 73.3206 77.2802 73.2898 77.2955C71.8588 78.0789 70.3816 78.7548 68.8121 79.2156C67.258 79.6765 65.6269 79.9069 64.0113 79.9222C63.7343 79.9222 63.4419 79.9222 63.165 79.9069C63.1034 79.9069 63.0573 79.9069 63.0111 79.9069C61.7186 79.8454 60.4414 79.6457 59.195 79.2924C58.4103 79.0774 57.6409 78.8163 56.8869 78.509C56.133 78.2018 55.3944 77.8485 54.6712 77.4799C53.3325 76.7886 52.0707 76.0052 50.7936 75.2218C50.732 75.1757 50.6551 75.145 50.5935 75.0989L50.455 75.0221C49.0702 74.1619 47.6853 73.3017 46.1927 72.6105C46.1774 72.6105 46.1466 72.5951 46.1312 72.5951C46.0696 72.5644 46.0081 72.5337 45.9312 72.5183C44.931 72.0729 43.8539 71.7349 42.7614 71.5813C42.746 71.6428 42.7152 71.7196 42.7152 71.781C43.0845 71.8271 43.4538 71.9039 43.8231 71.9961C44.4694 72.1497 45.1002 72.3647 45.7157 72.6259C45.7773 72.6412 45.8388 72.6719 45.9004 72.7027C45.9773 72.7334 46.0543 72.7641 46.1158 72.7948C47.6084 73.4553 49.0086 74.3002 50.3935 75.1297C50.4243 75.145 50.455 75.1757 50.4858 75.1911C50.5628 75.2372 50.6243 75.2679 50.7012 75.314C51.9938 76.0974 53.2863 76.8808 54.6404 77.572C55.3636 77.9407 56.1176 78.294 56.8562 78.6012C57.6101 78.9084 58.3795 79.1849 59.1796 79.4C60.4722 79.7686 61.8109 79.9837 63.165 80.0605C63.2111 80.0605 63.2727 80.0605 63.3188 80.0605C63.5497 80.0605 63.7958 80.0758 64.0267 80.0758C65.6577 80.0758 67.3042 79.8608 68.8737 79.4153C70.4586 78.9699 71.9665 78.294 73.3975 77.5259H73.4129C73.4129 77.4491 73.3975 77.3723 73.3821 77.2955V77.2495ZM71.3049 65.8057C70.9356 65.6367 70.5509 65.4984 70.1662 65.3602C69.7353 65.2373 69.3199 65.0991 68.889 65.0223C68.6736 64.9762 68.4582 64.9301 68.2428 64.8994L67.5811 64.8226C67.3657 64.7918 67.1349 64.8072 66.9195 64.7765H66.581C66.4732 64.7611 66.3655 64.7765 66.2424 64.7765C64.4729 64.8072 62.7187 65.2834 61.1338 66.0822C59.5489 66.8656 58.1179 67.9408 56.7946 69.1082C55.7329 70.0299 54.7481 71.0283 53.7633 72.0114L53.6094 72.165L52.9939 72.7795C52.2092 73.5629 51.4244 74.3463 50.5781 75.0682C50.5474 75.0836 50.5166 75.1143 50.4858 75.145C50.0242 75.5444 49.5626 75.9131 49.0702 76.2664C48.3624 76.7733 47.593 77.2034 46.7775 77.5106C45.9619 77.8178 45.1002 77.9561 44.2232 77.9407C43.3461 77.9253 42.4844 77.8178 41.6381 77.5874C41.5304 77.5567 41.4073 77.5259 41.2996 77.4799C41.2996 77.5413 41.2688 77.6028 41.2534 77.6642C41.3611 77.7103 41.4688 77.741 41.5766 77.7717C42.4382 78.0175 43.3307 78.1404 44.2078 78.1711H44.5463H44.8848H45.2233L45.5619 78.0943L45.9004 78.0329C46.0081 78.0175 46.1158 77.9714 46.2235 77.956L46.5467 77.8639C46.6544 77.8332 46.7621 77.7871 46.8544 77.741C47.7007 77.4338 48.4701 76.973 49.1933 76.4661C49.7164 76.0974 50.2088 75.698 50.6858 75.2833C50.7166 75.2525 50.7474 75.2218 50.7782 75.2065L51.2398 74.7917C51.8861 74.1927 52.5169 73.5782 53.1478 72.9484C53.3786 72.718 53.5941 72.503 53.8249 72.2726C53.871 72.2265 53.9172 72.1804 53.9633 72.1189C54.9327 71.1512 55.9022 70.1835 56.9177 69.2772C58.2256 68.1098 59.6259 67.0345 61.1954 66.2358C62.7495 65.437 64.4729 64.9455 66.227 64.8994C66.3348 64.8994 66.4425 64.8994 66.5656 64.8994H66.8887C67.1041 64.9301 67.3195 64.9147 67.5504 64.9455L68.1966 65.0223C68.412 65.0376 68.6275 65.0991 68.8429 65.1451C69.2737 65.2219 69.6892 65.3602 70.12 65.4677C70.5355 65.6213 70.9356 65.7442 71.3202 65.9285C71.3202 65.8825 71.3049 65.8517 71.2895 65.821L71.3049 65.8057ZM66.1039 46.6815C64.9345 47.3881 63.8266 48.1407 62.7033 48.9088C62.6418 48.9549 62.5802 48.9856 62.5341 49.0317C62.3033 49.2006 62.0571 49.3542 61.8109 49.5232C60.3645 50.5063 58.9027 51.5048 57.3178 52.2267C57.0408 52.365 56.7484 52.4725 56.4561 52.58C56.3945 52.5954 56.333 52.6261 56.2868 52.6415C55.8098 52.8104 55.3328 52.9333 54.8404 53.0255C53.9941 53.1791 53.117 53.1484 52.2554 52.964C51.409 52.7951 50.5627 52.5186 49.778 52.1345C49.6395 52.0577 49.4856 51.9809 49.3471 51.9041C49.3164 51.9656 49.301 52.0117 49.2702 52.0731C49.4087 52.1499 49.5472 52.2267 49.6857 52.3035C50.4858 52.7029 51.3321 52.9794 52.1938 53.1637L52.5169 53.2405L52.8555 53.2866L53.194 53.3327H53.5325L53.871 53.3481C53.9941 53.3481 54.1018 53.3327 54.2095 53.3173L54.5481 53.2866C54.6558 53.2866 54.7635 53.2405 54.8712 53.2252C55.4251 53.133 55.9637 52.9794 56.5023 52.7797C56.5638 52.7643 56.6254 52.7336 56.6869 52.7029C56.9331 52.6107 57.1793 52.5032 57.4101 52.3957C58.2102 52.027 58.9796 51.5969 59.7336 51.1207C60.4876 50.6446 61.2262 50.1684 61.9494 49.6615C62.2109 49.4771 62.4725 49.3082 62.7341 49.1085C62.7957 49.0778 62.8572 49.0317 62.9034 48.9856C63.9805 48.2483 65.0576 47.4956 66.1809 46.8197L66.1039 46.62V46.6815ZM68.5659 54.07C68.2582 54.1775 67.935 54.2851 67.6119 54.3772C67.5657 54.3926 67.5196 54.4079 67.4734 54.4233C67.0733 54.5462 66.6733 54.6384 66.2732 54.7305C64.6883 55.0685 63.0419 55.1299 61.4724 54.7305C59.8875 54.3926 58.3333 53.855 56.9793 52.964C56.8869 52.9026 56.7792 52.8411 56.6869 52.7643C56.61 52.7183 56.533 52.6722 56.4561 52.6107C55.302 51.7966 54.2403 50.8442 52.9786 50.1684C52.2554 49.7536 51.486 49.4464 50.7012 49.2006C50.6705 49.2006 50.6551 49.1853 50.6243 49.1853C50.6243 49.1853 50.6243 49.2006 50.6089 49.2314C50.6089 49.2314 50.6089 49.2467 50.6089 49.2621C50.6397 49.2621 50.6705 49.2774 50.7012 49.2928C51.0859 49.4311 51.4706 49.5693 51.8399 49.7383C52.1938 49.9072 52.5785 50.0762 52.917 50.2913C54.1326 50.9518 55.1482 51.8888 56.2714 52.7029C56.3484 52.7643 56.4253 52.8104 56.5023 52.8565C56.6254 52.9487 56.7638 53.0255 56.8869 53.1176C58.241 54.0393 59.8259 54.6076 61.4262 54.9609C63.0265 55.3757 64.7191 55.3296 66.3194 54.9763C66.7502 54.8841 67.1964 54.7766 67.6119 54.6537C67.6581 54.6537 67.7042 54.623 67.7504 54.6076C68.0427 54.5155 68.3351 54.4233 68.6275 54.3311C68.6121 54.2543 68.5813 54.1775 68.5659 54.1007V54.07ZM69.2583 56.6813C68.9506 56.2512 68.6428 55.8365 68.3505 55.4064C68.1505 55.1299 67.9504 54.8534 67.7658 54.5769C67.7196 54.5155 67.6735 54.4387 67.6273 54.3772C66.8579 53.2866 66.0732 52.196 65.1961 51.1822C64.6114 50.5217 63.9959 49.8765 63.3034 49.3235C63.1804 49.2314 63.0573 49.1238 62.9342 49.047C62.8726 49.0009 62.7957 48.9549 62.7341 48.9088C62.1956 48.5401 61.5955 48.2483 60.9646 48.0486C60.7492 47.9871 60.5337 47.9411 60.3183 47.895L59.6567 47.8028C59.4412 47.7721 59.2258 47.726 58.995 47.7106L58.3333 47.6646H57.9948L57.6563 47.6492H56.9946C56.5484 47.6953 56.1176 47.7106 55.6713 47.8028C54.7943 47.9411 53.948 48.1715 53.1017 48.4326C52.3015 48.6784 51.5014 48.9088 50.6858 49.0778C50.6705 49.1085 50.6551 49.1392 50.6397 49.1699C50.6397 49.1699 50.6397 49.1853 50.6243 49.216C50.6551 49.216 50.6858 49.216 50.7166 49.2006C51.5321 49.047 52.3477 48.8166 53.1478 48.5862C53.9941 48.3404 54.8404 48.11 55.7021 47.9718C56.133 47.895 56.5792 47.8796 57.01 47.8335H57.9948L58.3333 47.8642L58.9796 47.9103C59.195 47.9257 59.4105 47.9718 59.6259 48.0025L60.2721 48.0947C60.4876 48.1407 60.6876 48.2022 60.903 48.2483C61.4877 48.4326 62.0417 48.7091 62.5495 49.0317C62.6264 49.0778 62.688 49.1238 62.7495 49.1699C62.888 49.2621 63.0419 49.3696 63.1804 49.4771C63.8728 50.0148 64.4883 50.6292 65.073 51.2897C65.9347 52.2728 66.7194 53.3327 67.5042 54.4079C67.5504 54.4694 67.5965 54.5462 67.6427 54.6076C67.8581 54.8995 68.0581 55.1913 68.2736 55.4678C68.6275 55.9748 68.9968 56.4663 69.3661 56.9732C69.3507 56.8657 69.3199 56.7735 69.2891 56.666L69.2583 56.6813Z" fill="white"/>
<path d="M62.9187 47.6038C61.3954 47.7882 57.9948 45.1461 56.5791 42.8266C56.4868 42.673 56.6561 40.9373 56.7638 38.8175C56.8253 37.5272 56.8561 36.0986 56.7946 34.7929L65.1191 36.4058C65.1191 36.4058 64.4421 39.1861 64.5652 41.4749C64.5652 41.6592 64.6113 41.8435 64.6421 42.0125C64.6421 42.0432 64.6421 42.074 64.6575 42.1047C64.8729 43.1185 65.3191 47.3427 62.9341 47.6192L62.9187 47.6038Z" fill="#FFD7D6"/>
<path d="M56.7792 38.4485C58.5487 40.8448 61.2107 43.1489 64.7498 42.5959C64.719 42.3809 64.6883 42.2119 64.6575 42.089C64.6575 42.0583 64.6421 42.0276 64.6421 41.9969C64.5959 41.8279 64.5652 41.6436 64.5652 41.4592C64.4421 39.1705 65.1191 36.3902 65.1191 36.3902L56.8099 34.7773C56.8715 35.9601 56.8407 37.2504 56.7946 38.4332L56.7792 38.4485Z" fill="#263238"/>
<path d="M54.5941 25.4535C53.8401 28.4028 55.7943 36.7437 57.9639 38.5102C61.1029 41.0755 66.0423 41.1062 68.1811 37.3735C70.2584 33.7637 67.5195 22.9497 65.119 21.3676C61.5799 19.0174 55.702 21.0911 54.6095 25.4535H54.5941Z" fill="#FFD7D6"/>
<path d="M62.8571 29.7235C62.8571 29.7235 62.8263 29.7696 62.8263 29.785C62.9956 30.338 63.1033 30.9985 62.6417 31.3211V31.3518C63.2264 31.0907 63.0879 30.2151 62.8417 29.7235H62.8571Z" fill="#263238"/>
<path d="M62.1955 29.2777C61.2877 29.462 61.7032 31.2746 62.5495 31.1056C63.3804 30.9367 62.9649 29.1241 62.1955 29.2777Z" fill="#263238"/>
<path d="M66.15 28.833C66.15 28.833 66.1962 28.8484 66.2115 28.8791C66.3192 29.4474 66.5501 30.0772 67.104 30.1387C67.1194 30.1387 67.1194 30.1694 67.104 30.1694C66.4577 30.2308 66.1654 29.386 66.15 28.833Z" fill="#263238"/>
<path d="M66.5193 28.1264C67.4118 27.8499 67.9042 29.6471 67.0732 29.8929C66.2577 30.154 65.7653 28.3568 66.5193 28.1264Z" fill="#263238"/>
<path d="M61.2876 28.6176C61.5184 28.4947 61.7185 28.3411 61.9339 28.2029C62.1801 28.0493 62.3955 27.9417 62.5186 27.6652C62.5802 27.5116 62.4878 27.2966 62.3494 27.2198C62.0262 27.0355 61.6723 27.1583 61.3646 27.3427C61.0414 27.5424 60.826 27.7728 60.7029 28.1414C60.5798 28.4947 60.9953 28.7866 61.303 28.633L61.2876 28.6176Z" fill="#263238"/>
<path d="M66.9809 27.2659C66.7193 27.2812 66.4731 27.2659 66.2116 27.2505C65.9192 27.2505 65.6884 27.2505 65.4422 27.0815C65.3037 26.9894 65.2729 26.7436 65.3499 26.6053C65.5345 26.2828 65.9038 26.206 66.2577 26.206C66.6424 26.206 66.9348 26.2981 67.2425 26.5439C67.5349 26.7743 67.3348 27.2505 66.9809 27.2659Z" fill="#263238"/>
<path d="M63.5493 35.0535C63.7186 35.1611 63.8878 35.2993 64.1033 35.2686C64.3033 35.2379 64.5187 35.0996 64.6726 34.9921C64.688 34.9921 64.7188 34.9921 64.7034 35.0228C64.611 35.2686 64.3341 35.4836 64.0571 35.499C63.7955 35.499 63.6109 35.33 63.5032 35.0996C63.4878 35.0689 63.5339 35.0535 63.5493 35.0689V35.0535Z" fill="#263238"/>
<path d="M63.7497 33.2255C64.1805 33.6402 64.7037 33.7938 65.2268 33.7785C65.4576 33.7785 65.7038 33.717 65.9193 33.6556C65.9654 33.6556 66.0116 33.6249 66.0424 33.6095C66.0885 33.6095 66.1193 33.5788 66.1655 33.5634C66.227 33.5327 66.2578 33.4713 66.2424 33.4098C66.2424 33.4098 66.2424 33.3637 66.227 33.3484V33.3023C66.1347 32.8722 65.9346 32.227 65.9346 32.227C66.1039 32.2731 66.9964 32.4421 66.9348 32.227C66.3809 30.3837 65.7808 28.3408 64.8421 26.6203C64.8114 26.5589 64.7191 26.605 64.7498 26.6511C65.2114 28.4483 65.9808 30.138 66.4578 31.9352C66.1808 31.9045 65.7192 31.8123 65.4884 31.8737C65.4269 31.9045 65.8885 33.118 65.9193 33.3177C65.9193 33.3177 65.9193 33.3177 65.9193 33.333C65.2114 33.5941 64.6113 33.502 63.7958 33.1794C63.7496 33.164 63.7035 33.2101 63.7497 33.2408V33.2255Z" fill="#263238"/>
<path d="M65.6112 33.4873C65.6112 33.4873 65.3496 34.0864 64.8726 34.409C64.688 34.5165 64.4879 34.5933 64.2571 34.5933C63.7801 34.5933 63.6724 34.1786 63.6724 33.7946C63.6724 33.4873 63.7494 33.2108 63.7494 33.2108C63.7494 33.2108 64.5495 33.6717 65.6112 33.4873Z" fill="#263238"/>
<path d="M64.8726 34.409C64.688 34.5165 64.4879 34.5933 64.2571 34.5933C63.7801 34.5933 63.6724 34.1786 63.6724 33.7946C64.1648 33.7331 64.7188 33.9482 64.8726 34.409Z" fill="#FF99BA"/>
<path d="M55.1019 32.5346C54.7788 31.8126 51.5782 23.9786 51.6552 23.057C51.7321 22.2121 52.6707 22.4118 52.6707 22.3658C52.6707 22.3043 52.5938 21.5824 53.0093 21.2291C53.3786 20.9218 53.994 21.0908 53.994 21.0908C53.994 21.0908 54.0094 20.292 54.4711 20.0156C54.9327 19.7237 55.4558 20.077 55.4558 20.077C55.4558 20.077 55.502 19.309 56.1021 19.0325C56.6868 18.756 57.1023 19.2475 57.1023 19.2475C57.1023 19.2475 57.1946 18.4795 57.687 18.2491C58.1794 18.034 58.7026 18.5102 58.7026 18.5102C58.7026 18.5102 58.8872 17.7882 59.5027 17.6961C60.1336 17.5885 60.4721 18.2337 60.4721 18.2337C60.4721 18.2337 60.7337 17.5271 61.3184 17.4196C61.9031 17.3121 62.2109 18.0033 62.2109 18.0033C62.2109 18.0033 62.3494 17.3274 62.9033 17.2813C63.4573 17.2352 63.7034 17.9879 63.7034 17.9879C63.7034 17.9879 63.7342 17.3889 64.4113 17.4964C65.4422 17.6654 66.6732 22.7651 67.2118 24.7774C67.2118 24.7774 66.5655 23.2874 66.15 23.3181C65.7192 23.3488 65.5192 24.0554 64.7498 24.3473C63.6727 24.762 61.6108 23.7482 60.1336 24.3012C58.6872 24.8542 57.8255 26.59 57.6408 29.0016C57.4408 31.7358 55.9021 34.255 55.1173 32.5346H55.1019Z" fill="#263238"/>
<path d="M56.733 32.2274C56.733 32.2274 54.6403 29.6468 53.4555 30.3994C52.2706 31.1675 53.9633 35.0077 55.4558 35.4378C56.9484 35.8832 57.3792 34.5161 57.3792 34.5161L56.733 32.2274Z" fill="#FFD7D6"/>
<path d="M53.9632 31.4904C53.9632 31.4904 53.9324 31.5211 53.9632 31.5364C55.0095 31.8744 55.6096 32.7807 56.0559 33.733C55.7327 33.3797 55.3019 33.1954 54.8249 33.5948C54.7941 33.6101 54.8249 33.6562 54.8557 33.6409C55.2711 33.518 55.5635 33.5794 55.8712 33.8866C56.0867 34.1017 56.2405 34.3935 56.4098 34.6547C56.4713 34.7468 56.6252 34.6854 56.579 34.5779C56.579 34.5779 56.579 34.5779 56.579 34.5625C56.5175 33.2722 55.3788 31.5211 53.9786 31.4904H53.9632Z" fill="#263238"/>
<path d="M65.1652 43.2411H65.1345C65.4884 44.8386 66.2116 48.5405 63.6573 48.7249C62.6263 48.8017 61.5954 48.3101 60.7183 47.8186C59.8258 47.3117 58.9949 46.6819 58.2256 45.9907C57.3793 45.2226 56.4868 44.4239 55.779 43.5176C55.7482 43.4868 55.6867 43.5329 55.7174 43.5636C56.4714 44.4546 57.1331 45.3916 57.9794 46.2057C58.7949 46.9891 59.6874 47.6957 60.6722 48.2333C61.6108 48.7402 62.6879 49.2164 63.7804 49.0782C64.8113 48.9553 65.4576 48.2026 65.6115 47.2195C65.8115 45.9138 65.5499 44.4699 65.1499 43.2257L65.1652 43.2411Z" fill="#263238"/>
<path d="M143.64 30.7798L66.147 37.9971L71.9144 99.7099L149.407 92.4927L143.64 30.7798Z" fill="#263238"/>
<path d="M98.7252 77.9412L96.6787 56.0674L120.221 64.9152L98.7252 77.9412Z" fill="white"/>
<path d="M74.4798 40.3516L69.8989 40.7782L70.1991 43.99L74.78 43.5634L74.4798 40.3516Z" fill="white"/>
<path d="M75.1001 46.8868L70.5191 47.3134L70.8193 50.5252L75.4002 50.0986L75.1001 46.8868Z" fill="white"/>
<path d="M75.7203 53.422L71.1393 53.8486L71.4395 57.0604L76.0204 56.6338L75.7203 53.422Z" fill="white"/>
<path d="M76.3114 59.9581L71.7305 60.3848L72.0306 63.5966L76.6116 63.1699L76.3114 59.9581Z" fill="white"/>
<path d="M76.9315 66.4933L72.3506 66.9199L72.6508 70.1317L77.2317 69.7051L76.9315 66.4933Z" fill="white"/>
<path d="M77.5516 73.0135L72.9707 73.4402L73.2708 76.652L77.8518 76.2254L77.5516 73.0135Z" fill="white"/>
<path d="M78.141 79.5499L73.5601 79.9766L73.8602 83.1884L78.4411 82.7617L78.141 79.5499Z" fill="white"/>
<path d="M78.7626 86.0851L74.1816 86.5117L74.4818 89.7235L79.0627 89.2969L78.7626 86.0851Z" fill="white"/>
<path d="M79.3827 92.6202L74.8018 93.0469L75.1019 96.2587L79.6828 95.8321L79.3827 92.6202Z" fill="white"/>
<path d="M140.465 34.2139L135.884 34.6405L136.185 37.8523L140.766 37.4257L140.465 34.2139Z" fill="white"/>
<path d="M141.07 40.7501L136.489 41.1768L136.79 44.3886L141.37 43.9619L141.07 40.7501Z" fill="white"/>
<path d="M141.676 47.2853L137.095 47.7119L137.396 50.9237L141.976 50.4971L141.676 47.2853Z" fill="white"/>
<path d="M142.297 53.8204L137.716 54.2471L138.016 57.4589L142.597 57.0323L142.297 53.8204Z" fill="white"/>
<path d="M142.902 60.3421L138.321 60.7687L138.621 63.9806L143.202 63.5539L142.902 60.3421Z" fill="white"/>
<path d="M143.506 66.8773L138.925 67.3039L139.226 70.5157L143.807 70.0891L143.506 66.8773Z" fill="white"/>
<path d="M144.126 73.3976L139.546 73.8242L139.846 77.036L144.427 76.6094L144.126 73.3976Z" fill="white"/>
<path d="M144.733 79.9493L140.152 80.376L140.452 83.5878L145.033 83.1612L144.733 79.9493Z" fill="white"/>
<path d="M145.338 86.4689L140.757 86.8955L141.057 90.1074L145.638 89.6807L145.338 86.4689Z" fill="white"/>
<path d="M59.3027 51.4744C60.7952 55.8062 66.627 73.3482 67.4887 74.1316C70.997 77.3574 79.7986 82.9948 80.8757 84.1776C82.3375 85.7751 75.7363 95.606 73.4282 95.3295C72.4742 95.222 60.6875 87.4801 57.0253 83.6707C54.0864 80.6139 52.5476 61.0289 52.4707 51.9353C52.3938 44.1166 56.4099 43.0874 59.3027 51.4744Z" fill="#FFD7D6"/>
<path d="M52.6554 66.7124L64.719 65.9136C64.719 65.9136 60.903 51.5973 57.0561 46.4822C53.1939 41.367 52.4246 46.5129 52.2553 50.4299C52.086 54.3469 52.6708 66.697 52.6708 66.697L52.6554 66.7124Z" fill="#FF748E"/>
<path d="M64.4882 65.0992C63.4265 65.2989 62.4109 65.6522 61.4415 66.1284L61.0107 66.1591C61.0107 66.1591 61.0876 66.113 61.1338 66.0977C62.1801 65.5754 63.3034 65.176 64.4574 64.9763C64.4574 65.0224 64.4882 65.0685 64.5036 65.1146L64.4882 65.0992ZM59.5642 50.998C58.841 51.4435 58.0871 51.8582 57.3177 52.2269C57.0407 52.3651 56.7484 52.4726 56.456 52.5802C56.3945 52.5955 56.3329 52.6263 56.2867 52.6416C55.8097 52.8106 55.3327 52.9335 54.8403 53.0256C53.994 53.1792 53.117 53.1485 52.2553 52.9642C52.2399 52.9642 52.2245 52.9642 52.2091 52.9642V53.1792L52.5322 53.256L52.8708 53.3021L53.2093 53.3482H53.5478L53.8863 53.3636C54.0094 53.3636 54.1171 53.3482 54.2248 53.3328L54.5634 53.3021C54.6711 53.3021 54.7788 53.256 54.8865 53.2407C55.4404 53.1485 55.979 52.9949 56.5176 52.7952C56.5791 52.7799 56.6407 52.7491 56.7022 52.7184C56.9484 52.6263 57.1946 52.5187 57.4254 52.4112C58.2102 52.0579 58.9488 51.6278 59.672 51.1823C59.6412 51.1055 59.6104 51.0441 59.5796 50.9673L59.5642 50.998ZM61.0568 54.6232C59.6104 54.2852 58.2102 53.7629 56.9792 52.9335C56.8868 52.872 56.7791 52.8106 56.6868 52.7338C56.6099 52.6877 56.5329 52.6416 56.456 52.5802C55.302 51.766 54.2402 50.8137 52.9785 50.1378C52.7477 50.0149 52.5169 49.892 52.286 49.7845C52.286 49.8152 52.286 49.8613 52.286 49.892C52.5015 49.9996 52.7323 50.1071 52.9323 50.23C54.1479 50.8905 55.1635 51.8275 56.2867 52.6416C56.3637 52.7031 56.4406 52.7491 56.5176 52.7952C56.6407 52.8874 56.7791 52.9642 56.9022 53.0564C58.1794 53.9319 59.6566 54.4849 61.1645 54.8382C61.1338 54.7614 61.103 54.6846 61.0722 54.6078L61.0568 54.6232ZM57.8101 47.6494H57.6408H56.9792C56.5329 47.6954 56.1021 47.7108 55.6559 47.803C54.7788 47.9412 53.9325 48.1716 53.0862 48.4328C52.84 48.5096 52.6092 48.571 52.363 48.6478C52.363 48.6939 52.363 48.74 52.363 48.7861C52.6246 48.7092 52.8861 48.6324 53.1323 48.571C53.9786 48.3252 54.8249 48.0948 55.6866 47.9566C56.1175 47.8798 56.5637 47.8644 56.9946 47.8183H57.9178C57.9178 47.8183 57.8563 47.6954 57.8255 47.6494H57.8101Z" fill="white"/>
<path d="M52.9785 64.0242C54.6403 63.7631 56.3637 63.7016 58.0563 63.5941C59.7797 63.4866 61.5184 63.4866 63.2418 63.4098C63.288 63.4098 63.3034 63.4866 63.2418 63.502C61.5492 63.6556 59.872 63.8706 58.164 63.9474C56.4406 64.0396 54.6865 64.1625 52.9631 64.0703C52.9323 64.0703 52.9323 64.0242 52.9631 64.0242H52.9785Z" fill="#263238"/>
<path d="M51.7321 56.5435C51.8552 57.2655 51.9783 57.9874 52.1168 58.7094C52.1014 57.204 52.086 55.6833 52.1476 54.178C52.1476 54.1319 52.2091 54.1319 52.2091 54.178C52.3784 56.267 52.4553 58.3868 52.5322 60.4759C52.6092 62.4882 52.7323 64.5465 52.6707 66.5588C52.8246 66.5588 52.9785 66.5895 53.117 66.5895C53.1939 66.5895 53.1939 66.697 53.117 66.7124C52.9323 66.7277 52.7477 66.7585 52.563 66.7892C52.5015 66.7892 52.4399 66.7585 52.4245 66.6817C52.1783 64.6079 52.1629 62.4574 52.1168 60.3684C52.1168 60.0304 52.1168 59.6771 52.1168 59.3392C51.9014 58.4175 51.7167 57.4805 51.609 56.5282C51.609 56.4514 51.7013 56.436 51.7167 56.5128L51.7321 56.5435Z" fill="#263238"/>
<path d="M64.2728 65.929L64.719 65.8675L64.6882 65.9136C64.3497 65.0227 64.042 64.1318 63.7342 63.2255C63.4265 62.3192 63.1495 61.4129 62.8725 60.5066C62.5956 59.6003 62.334 58.6787 62.0878 57.7724C61.8416 56.8507 61.6108 55.9291 61.4107 55.0074C61.7646 55.8984 62.0878 56.7893 62.3955 57.6956C62.7033 58.5865 62.9956 59.4928 63.2726 60.3991C63.5496 61.3054 63.8112 62.2117 64.0727 63.1333C64.3189 64.0549 64.5651 64.9766 64.7652 65.8982V65.9443H64.7344H64.2882L64.2728 65.929Z" fill="#263238"/>
<path d="M62.4417 56.0213C62.5802 56.4667 62.6263 56.9276 62.6571 57.373C62.6725 57.8338 62.6725 58.2793 62.5956 58.7401C62.4571 58.2947 62.4109 57.8338 62.3801 57.3884C62.3648 56.9276 62.3648 56.4821 62.4417 56.0213Z" fill="#263238"/>
<path d="M86.6767 89.646C86.1382 88.9087 86.5228 88.6322 88.077 89.0623C89.6465 89.4924 95.4013 92.5338 96.2938 90.4294C97.1863 88.325 88.9848 84.1622 86.3382 83.6399C83.707 83.1023 79.2446 83.1945 79.2446 83.1945C80.6757 84.3312 83.8916 87.4033 86.6767 89.646Z" fill="#FFD7D6"/>
<path d="M72.1203 94.592C76.2749 98.2786 81.2604 101.658 87.046 102.226C88.1847 102.334 88.8925 101.842 88.8925 101.842C91.4776 102.15 92.4008 101.013 92.4008 101.013C94.8935 100.567 95.6783 99.2771 95.6783 99.2771C95.6783 99.2771 97.7864 99.2771 97.8787 97.8024C97.971 96.3739 94.632 95.2218 92.2469 93.7165C86.769 90.2757 80.7372 84.3464 79.26 83.1943L72.1357 94.592H72.1203Z" fill="#FFD7D6"/>
<path d="M84.7379 94.6383C86.369 95.6214 87.9385 96.6198 89.708 97.3879C91.6314 98.2173 93.6318 98.6935 95.6475 99.2312C95.7091 99.2465 95.6937 99.3387 95.6321 99.3233C91.8315 98.9393 87.6769 97.1114 84.7071 94.7151C84.6302 94.6536 84.6764 94.5922 84.7533 94.6383H84.7379Z" fill="#263238"/>
<path d="M82.1684 97.6339C83.8148 98.4941 86.7077 100.015 92.401 100.967C92.4164 100.967 92.4164 100.998 92.401 100.998C88.6157 100.875 85.292 99.7383 82.1222 97.7107C82.0299 97.6493 82.0607 97.5725 82.1684 97.6339Z" fill="#263238"/>
<path d="M80.8294 99.2616C83.6761 100.629 85.6457 101.136 88.877 101.827C88.8924 101.827 88.8924 101.858 88.877 101.858C85.1071 101.458 83.7838 100.89 80.7679 99.3537C80.6602 99.3077 80.7217 99.2155 80.8294 99.2616Z" fill="#263238"/>
<path d="M101.356 32.1501C103.433 31.1517 106.003 28.6632 107.711 28.4482C109.25 28.2639 109.788 29.5234 109.788 29.5234C109.788 29.5234 110.635 27.8337 112.204 27.8952C113.02 27.9259 113.681 29.2469 113.681 29.2469C113.681 29.2469 114.42 27.9106 115.805 28.0642C116.913 28.1717 117.405 29.4774 117.405 29.4774C117.405 29.4774 118.698 28.525 119.805 29.0012C122.021 29.9689 122.067 39.554 118.544 41.044C116.897 41.7353 117.02 39.4004 117.02 39.4004C117.02 39.4004 116.036 42.7184 114.066 42.7798C112.081 42.8412 112.419 39.7998 112.419 39.7998C112.419 39.7998 111.435 43.0102 109.388 42.872C107.249 42.7184 108.111 39.7384 108.111 39.7384C108.111 39.7384 106.68 41.8735 105.126 41.3973C102.572 40.6139 105.757 36.574 105.249 34.4696L101.771 33.3176L101.387 32.1194L101.356 32.1501Z" fill="#FFD7D6"/>
<path d="M104.372 30.2144C102.325 30.9824 99.7711 28.4632 97.7092 28.9087C94.9087 29.5231 97.663 32.6567 101.741 33.3326L104.987 33.3019L104.372 30.199V30.2144Z" fill="#FFD7D6"/>
<path d="M117.513 29.662C117.513 29.662 117.559 29.6159 117.559 29.662C118.344 32.8109 118.236 36.5129 117.005 39.539C116.959 39.6311 116.79 39.6158 116.805 39.4929C117.467 36.1289 117.79 33.1028 117.497 29.6773L117.513 29.662Z" fill="#263238"/>
<path d="M113.697 29.2011C113.697 29.2011 113.758 29.1551 113.758 29.2011C114.543 32.4423 114.312 36.605 112.497 39.9383C112.435 40.0459 112.266 40.0919 112.327 39.9537C113.374 37.6496 113.974 32.2887 113.697 29.2011Z" fill="#263238"/>
<path d="M107.88 39.9533C109.511 36.6968 109.927 33.2559 109.835 29.6615C109.835 29.6154 109.896 29.6154 109.912 29.6615C110.435 31.4126 110.25 33.7168 109.942 35.4833C109.665 37.1883 109.065 38.6629 107.988 40.0147C107.942 40.0608 107.834 40.0147 107.88 39.9533Z" fill="#263238"/>
</g>
<defs>
<clipPath id="clip0_1_724">
<rect width="175" height="219.844" fill="white"/>
</clipPath>
</defs>
</svg>
