<svg width="167" height="164" viewBox="0 0 167 164" fill="none" xmlns="http://www.w3.org/2000/svg">
<g clip-path="url(#clip0_1_948)">
<path d="M154.846 17.8543C154.526 16.9781 153.247 17.1156 153.122 18.0404C151.92 26.9817 148.037 50.3276 138.915 63.7108C124.064 85.5015 116.764 118.517 130.271 133.184C130.271 133.184 189.701 113.318 154.846 17.8543Z" fill="#5C6367"/>
<path opacity="0.43" d="M154.869 30.3672C154.887 30.6516 154.878 30.8875 154.881 31.1415L154.873 31.8907L154.838 33.3874C154.809 34.3848 154.764 35.3816 154.719 36.3784C154.622 38.3714 154.5 40.3626 154.36 42.3532C154.073 46.3334 153.678 50.3053 153.224 54.2708C152.776 58.2369 152.217 62.1907 151.575 66.1305C150.929 70.0697 150.228 74.0012 149.399 77.9076C147.755 85.7222 145.687 93.4542 143.084 101.008C141.742 104.771 140.303 108.5 138.651 112.137C136.973 115.762 135.142 119.316 133.06 122.72C133.015 122.794 132.919 122.818 132.845 122.772C132.773 122.728 132.749 122.634 132.79 122.561L132.791 122.56C134.733 119.089 136.485 115.521 138.058 111.873C139.642 108.23 141.015 104.497 142.288 100.734C143.56 96.9696 144.68 93.1539 145.714 89.3154C146.747 85.4757 147.621 81.5951 148.473 77.7104C150.145 69.9315 151.402 62.0667 152.443 54.1743C152.955 50.2269 153.389 46.2684 153.752 42.3029C153.936 40.3204 154.103 38.3362 154.245 36.3503L154.435 33.3698L154.515 31.8796L154.546 31.1345C154.553 30.8904 154.564 30.6282 154.561 30.414V30.3789C154.559 30.2928 154.627 30.222 154.713 30.2208C154.796 30.2197 154.865 30.2846 154.87 30.3672H154.869Z" fill="white"/>
<path d="M116.053 1.23329C115.521 0.517445 114.386 0.993891 114.523 1.87596C115.848 10.4052 118.627 32.8789 113.896 47.6517C106.194 71.7046 108.466 103.983 124.835 113.731C124.835 113.731 173.94 79.2259 116.053 1.23329Z" fill="#37474F"/>
<path opacity="0.43" d="M119.474 12.7014C119.568 12.9577 119.624 13.1761 119.695 13.4084L119.891 14.0979L120.266 15.4799C120.51 16.4029 120.739 17.3289 120.969 18.2554C121.422 20.1097 121.851 21.9692 122.264 23.8329C123.082 27.5619 123.799 31.312 124.46 35.0727C125.126 38.8328 125.687 42.6116 126.169 46.4009C126.646 50.1902 127.072 53.9883 127.372 57.7976C127.987 65.4143 128.189 73.0725 127.852 80.7138C127.644 84.5318 127.336 88.3469 126.808 92.135C126.252 95.9185 125.538 99.6797 124.552 103.372C124.53 103.454 124.446 103.502 124.365 103.48C124.285 103.459 124.238 103.378 124.255 103.299V103.296C125.092 99.582 125.729 95.829 126.181 92.0531C126.645 88.2778 126.888 84.4785 127.034 80.6793C127.177 76.8782 127.168 73.0725 127.074 69.2691C126.978 65.4652 126.726 61.6671 126.452 57.8713C125.873 50.2803 124.89 42.7228 123.703 35.2003C123.101 31.4396 122.424 27.6907 121.681 23.9552C121.312 22.0869 120.927 20.2215 120.518 18.3608L119.884 15.5759L119.552 14.1869L119.379 13.4951C119.318 13.2697 119.257 13.0256 119.197 12.8307L119.186 12.7979C119.161 12.7178 119.205 12.6329 119.285 12.6077C119.363 12.5831 119.445 12.6247 119.472 12.7002L119.474 12.7014Z" fill="white"/>
<path d="M112.784 126.971C138.152 101.486 138.152 60.1679 112.784 34.6836C87.4161 9.19922 46.2866 9.19923 20.9186 34.6836C-4.44927 60.1679 -4.44927 101.486 20.9186 126.971C46.2866 152.455 87.4161 152.455 112.784 126.971Z" fill="#6C63FF"/>
<path d="M117.136 126.971C142.503 101.486 142.503 60.1679 117.136 34.6835C91.7677 9.19916 50.6381 9.19917 25.2702 34.6835C-0.0977172 60.1679 -0.0977118 101.486 25.2702 126.971C50.6381 152.455 91.7677 152.455 117.136 126.971Z" fill="white"/>
<path d="M71.2027 136.522C101.821 136.522 126.642 111.587 126.642 80.8278C126.642 50.0689 101.821 25.1339 71.2027 25.1339C40.5844 25.1339 15.7633 50.0689 15.7633 80.8278C15.7633 111.587 40.5844 136.522 71.2027 136.522Z" fill="#6C63FF"/>
<path d="M71.2028 139.311C39.1022 139.311 12.9865 113.076 12.9865 80.8278C12.9865 48.5799 39.1022 22.3437 71.2028 22.3437C103.303 22.3437 129.419 48.5793 129.419 80.8272C129.419 113.075 103.303 139.311 71.2028 139.311V139.311ZM71.2028 25.1333C40.6333 25.1333 15.7633 50.1175 15.7633 80.8272C15.7633 111.537 40.6333 136.521 71.2028 136.521C101.772 136.521 126.642 111.537 126.642 80.8272C126.642 50.1175 101.772 25.1333 71.2028 25.1333Z" fill="white"/>
<path d="M95.102 104.836C108.301 91.5761 108.301 70.0779 95.102 56.8183C81.9029 43.5586 60.5029 43.5586 47.3038 56.8183C34.1047 70.0779 34.1047 91.5761 47.3038 104.836C60.5029 118.095 81.9029 118.095 95.102 104.836Z" fill="#6C63FF"/>
<path d="M71.2028 117.571C51.0352 117.571 34.6275 101.087 34.6275 80.8268C34.6275 60.5661 51.0352 44.0836 71.2028 44.0836C91.3703 44.0836 107.778 60.5661 107.778 80.8268C107.778 101.087 91.3703 117.571 71.2028 117.571ZM71.2028 49.6628C54.097 49.6628 40.1807 63.6431 40.1807 80.8268C40.1807 98.0104 54.097 111.991 71.2028 111.991C88.3085 111.991 102.225 98.0104 102.225 80.8268C102.225 63.6431 88.3085 49.6628 71.2028 49.6628Z" fill="white"/>
<path d="M80.4621 90.128C85.5759 84.9907 85.5759 76.6614 80.4621 71.5241C75.3482 66.3868 67.057 66.3868 61.9432 71.5241C56.8293 76.6614 56.8293 84.9907 61.9432 90.128C67.057 95.2653 75.3482 95.2653 80.4621 90.128Z" fill="#FF748E"/>
<path d="M71.2023 96.7709C62.451 96.7709 55.3312 89.6183 55.3312 80.8263C55.3312 72.0343 62.451 64.8817 71.2023 64.8817C79.9536 64.8817 87.074 72.0343 87.074 80.8263C87.074 89.6183 79.9542 96.7709 71.2023 96.7709ZM71.2023 70.4609C65.5128 70.4609 60.8843 75.1107 60.8843 80.8263C60.8843 86.5419 65.5128 91.1916 71.2023 91.1916C76.8918 91.1916 81.5203 86.5419 81.5203 80.8263C81.5203 75.1107 76.8918 70.4609 71.2023 70.4609Z" fill="white"/>
<path d="M161.67 100.442L164.444 106.066L152.682 103.345C148.828 102.454 145.575 99.8733 143.819 96.3134L161.67 100.442Z" fill="#6C63FF"/>
<path d="M162.057 98.752L166.999 94.913L155.237 92.1924C151.383 91.301 147.335 92.193 144.206 94.6232L162.057 98.752Z" fill="#6C63FF"/>
<path d="M85.9694 80.8555L85.5054 82.881L161.852 100.531L162.316 98.506L85.9694 80.8555Z" fill="#5C6367"/>
<path d="M89.5199 79.8627C90.6764 80.1302 89.4208 85.6082 88.2643 85.3407L70.7006 78.9906C70.0515 78.7559 70.2747 77.7837 70.9604 77.8574L89.5199 79.8627Z" fill="#6C63FF"/>
<path d="M108.156 158.885C108.156 158.885 109.093 160.243 109.14 162.15C109.151 162.599 108.79 162.97 108.343 162.985L101.126 163.238C100.788 163.25 100.636 162.819 100.906 162.614C102.238 161.602 104.86 159.709 106.777 158.933L108.156 158.885L108.156 158.885Z" fill="#37474F"/>
<path d="M108.335 156.57L108.15 159.357C108.13 159.669 107.863 159.914 107.553 159.888C107.364 159.872 107.138 159.823 106.888 159.71C106.65 159.603 106.503 159.357 106.513 159.095L106.638 155.732L108.336 156.571L108.335 156.57Z" fill="#FEBBBA"/>
<path d="M148.361 146.724C148.361 146.724 149.866 146.057 151.739 146.373C152.18 146.447 152.474 146.874 152.404 147.318L151.282 154.484C151.23 154.819 150.779 154.888 150.63 154.583C149.894 153.077 148.541 150.132 148.147 148.094L148.361 146.724V146.724Z" fill="#37474F"/>
<path d="M146.133 146.108L148.822 146.819C149.122 146.899 149.311 147.209 149.227 147.51C149.175 147.693 149.085 147.907 148.927 148.132C148.777 148.346 148.508 148.444 148.255 148.385L144.992 147.623L146.133 146.108H146.133Z" fill="#FEBBBA"/>
<path d="M109.309 89.7218C109.309 89.7218 109.067 89.1605 109.107 88.828C109.146 88.4956 109.155 87.459 108.536 87.0212C108.536 87.0212 108.2 87.0376 108.194 87.4157C107.799 86.9901 107.779 86.6232 107.371 86.8842C106.964 87.1447 105.431 88.0794 106.196 88.6958C106.962 89.3121 108.166 90.4851 108.166 90.4851L109.309 89.7218H109.309Z" fill="#FEBBBA"/>
<path d="M122.597 134.56C122.597 134.56 123.963 145.51 127.874 145.928C131.785 146.346 146.763 148.519 146.763 148.519L147.179 146.262C147.179 146.262 138.525 140.996 133.366 141.079C130.787 137.234 131.416 126.609 131.416 126.609L122.598 134.559L122.597 134.56Z" fill="#37474F"/>
<path d="M138.686 96.3271C138.226 108.536 131.85 109.614 131.85 109.614V125.229H122.862C122.862 125.229 118.503 114.566 118.616 111.002C112.133 108.248 108.851 92.5015 108.166 90.4851C108.485 90.241 108.657 90.2503 109.309 89.7218C118.146 103.85 120.301 106.021 120.301 106.021H125.294C134.888 105.155 137.248 95.994 137.248 95.994L138.686 96.3265V96.3271Z" fill="#FE708B"/>
<path d="M131.57 125.197C131.57 125.197 132.284 132.848 117.282 138.811C113.62 145.666 108.818 158.445 108.818 158.445H105.656C105.656 158.445 107.819 139.146 111.647 135.301C115.475 131.455 119.651 127.128 122.861 125.233C130.287 124.453 131.57 125.197 131.57 125.197Z" fill="#37474F"/>
<path d="M125.174 100.33L126.828 106.185C126.828 106.185 124.001 107.711 121.91 107.299L121.336 102.138L125.174 100.33V100.33Z" fill="#FEBBBA"/>
<path d="M121.745 96.0793C121.685 96.1477 119.434 101.77 119.434 101.77L122.657 102.993L125.578 97.9827C125.578 97.9827 122.761 94.9332 121.745 96.0798V96.0793Z" fill="#FEBBBA"/>
<path d="M124.239 98.6414L122.907 101.4C122.89 101.435 122.868 101.467 122.843 101.497C122.684 101.677 122.092 102.256 121.539 101.612C121.037 101.027 120.571 100.5 120.101 100.361C119.89 100.298 119.667 100.407 119.585 100.612C119.38 101.123 118.941 102.282 118.712 103.349C118.666 103.565 118.794 103.78 119.005 103.845C119.639 104.042 120.988 104.42 122.144 104.469C122.301 104.475 122.448 104.397 122.529 104.262C122.923 103.604 124.128 101.608 124.549 101.104C124.944 100.631 125.772 100.74 126.116 100.81C126.229 100.833 126.345 100.809 126.439 100.743C126.773 100.509 127.429 99.8911 126.706 98.9803C126.555 98.7895 126.591 98.5138 126.785 98.3681C127.172 98.0772 127.611 97.534 127.11 96.7415C126.601 95.9361 125.806 95.9648 125.307 96.0865C125.106 96.1357 124.904 96.0291 124.819 95.8395C124.77 95.7312 124.674 95.6428 124.491 95.6382C124.245 95.6317 124.062 95.4034 124.094 95.1576C124.156 94.6858 124.054 94.0689 123.266 93.7207C121.868 93.1032 120.806 94.4078 120.599 95.4473C120.391 96.4869 121.946 97.0698 122.894 97.1055C123.615 97.1325 124.066 97.9045 124.241 98.2732C124.296 98.3897 124.294 98.5255 124.238 98.6414H124.239Z" fill="#6C63FF"/>
<path d="M124.054 102.104C124.054 102.104 124.493 100.308 125.257 100.304C126.022 100.301 126.687 101.007 125.821 101.944C124.745 103.111 124.054 102.104 124.054 102.104Z" fill="#FEBBBA"/>
<path d="M138.987 93.1061C138.987 93.1061 137.046 92.2422 137.295 93.6914C137.545 95.1407 137.024 96.1995 138.13 96.3107C139.237 96.4219 139.363 94.1076 138.987 93.1061Z" fill="#FEBBBA"/>
</g>
<defs>
<clipPath id="clip0_1_948">
<rect width="167" height="163.888" fill="white"/>
</clipPath>
</defs>
</svg>
