<svg width="98" height="24" viewBox="0 0 98 24" fill="none" xmlns="http://www.w3.org/2000/svg">
<circle cx="12" cy="12" r="12" fill="#FF748E"/>
<path d="M11.9992 6.53516C15.3384 6.53516 18.0706 8.70873 18.0706 11.3923C18.0706 14.0759 15.3384 16.2494 11.9992 16.2494C11.2463 16.2494 10.5238 16.1402 9.85595 15.9459C8.08309 17.4637 5.92773 17.4637 5.92773 17.4637C7.34238 16.0491 7.56702 15.0959 7.59738 14.7316C6.56523 13.8634 5.92773 12.6855 5.92773 11.3923C5.92773 8.70873 8.65988 6.53516 11.9992 6.53516ZM15.0349 11.9994V10.7852H13.8206V11.9994H15.0349ZM12.6063 11.9994V10.7852H11.392V11.9994H12.6063ZM10.1777 11.9994V10.7852H8.96345V11.9994H10.1777Z" fill="white"/>
<path d="M39.68 17.644L37.976 15.928C37.576 16.04 37.168 16.096 36.752 16.096C35.968 16.096 35.256 15.912 34.616 15.544C33.984 15.176 33.488 14.664 33.128 14.008C32.768 13.344 32.588 12.596 32.588 11.764C32.588 10.932 32.768 10.188 33.128 9.532C33.488 8.868 33.984 8.352 34.616 7.984C35.256 7.616 35.968 7.432 36.752 7.432C37.536 7.432 38.24 7.616 38.864 7.984C39.496 8.352 39.992 8.868 40.352 9.532C40.712 10.188 40.892 10.932 40.892 11.764C40.892 12.604 40.712 13.356 40.352 14.02C39.992 14.676 39.496 15.184 38.864 15.544L41.06 17.644H39.68ZM33.716 11.764C33.716 12.428 33.844 13.012 34.1 13.516C34.364 14.02 34.724 14.408 35.18 14.68C35.644 14.944 36.168 15.076 36.752 15.076C37.328 15.076 37.844 14.94 38.3 14.668C38.764 14.396 39.124 14.012 39.38 13.516C39.644 13.012 39.776 12.428 39.776 11.764C39.776 11.092 39.644 10.508 39.38 10.012C39.124 9.508 38.764 9.124 38.3 8.86C37.844 8.588 37.328 8.452 36.752 8.452C36.168 8.452 35.644 8.588 35.18 8.86C34.724 9.124 34.364 9.508 34.1 10.012C33.844 10.508 33.716 11.092 33.716 11.764ZM48.2242 9.412V16H47.1322V14.452C46.9642 14.988 46.6642 15.4 46.2322 15.688C45.8082 15.968 45.3122 16.108 44.7442 16.108C43.9842 16.108 43.3682 15.864 42.8962 15.376C42.4242 14.88 42.1882 14.172 42.1882 13.252V9.412H43.2802V13.144C43.2802 13.8 43.4482 14.308 43.7842 14.668C44.1202 15.02 44.5762 15.196 45.1522 15.196C45.7522 15.196 46.2322 15.004 46.5922 14.62C46.9522 14.228 47.1322 13.66 47.1322 12.916V9.412H48.2242ZM49.7817 7.48C49.7817 7.28 49.8497 7.12 49.9857 7C50.1217 6.872 50.3017 6.808 50.5257 6.808C50.7497 6.808 50.9297 6.872 51.0657 7C51.2017 7.12 51.2697 7.28 51.2697 7.48C51.2697 7.68 51.2017 7.844 51.0657 7.972C50.9297 8.092 50.7497 8.152 50.5257 8.152C50.3017 8.152 50.1217 8.092 49.9857 7.972C49.8497 7.844 49.7817 7.68 49.7817 7.48ZM51.0657 9.412V16H49.9737V9.412H51.0657ZM55.7373 9.328C56.5773 9.328 57.2733 9.552 57.8253 10C58.3773 10.448 58.7173 11.048 58.8453 11.8H57.6933C57.6133 11.328 57.3933 10.96 57.0333 10.696C56.6813 10.424 56.2413 10.288 55.7133 10.288C55.3293 10.288 54.9773 10.376 54.6573 10.552C54.3453 10.728 54.0933 11 53.9013 11.368C53.7093 11.728 53.6133 12.176 53.6133 12.712C53.6133 13.248 53.7093 13.7 53.9013 14.068C54.0933 14.428 54.3453 14.696 54.6573 14.872C54.9773 15.048 55.3293 15.136 55.7133 15.136C56.2413 15.136 56.6813 15 57.0333 14.728C57.3933 14.456 57.6133 14.084 57.6933 13.612H58.8453C58.7173 14.372 58.3773 14.976 57.8253 15.424C57.2733 15.864 56.5773 16.084 55.7373 16.084C55.1053 16.084 54.5453 15.948 54.0573 15.676C53.5693 15.404 53.1853 15.016 52.9053 14.512C52.6333 14 52.4973 13.4 52.4973 12.712C52.4973 12.024 52.6333 11.424 52.9053 10.912C53.1853 10.4 53.5693 10.008 54.0573 9.736C54.5453 9.464 55.1053 9.328 55.7373 9.328ZM63.8864 16L61.3664 13.036V16H60.2744V7.12H61.3664V12.28L63.8504 9.412H65.1824L62.2304 12.688L65.2544 16H63.8864ZM72.9247 7.456C73.9567 7.456 74.8087 7.712 75.4807 8.224C76.1527 8.728 76.6167 9.42 76.8727 10.3H75.7207C75.5047 9.74 75.1567 9.296 74.6767 8.968C74.1967 8.632 73.6087 8.464 72.9127 8.464C72.3607 8.464 71.8647 8.6 71.4247 8.872C70.9927 9.136 70.6487 9.52 70.3927 10.024C70.1447 10.52 70.0207 11.104 70.0207 11.776C70.0207 12.44 70.1447 13.02 70.3927 13.516C70.6487 14.012 70.9927 14.396 71.4247 14.668C71.8647 14.932 72.3607 15.064 72.9127 15.064C73.6087 15.064 74.1967 14.9 74.6767 14.572C75.1567 14.236 75.5047 13.788 75.7207 13.228H76.8727C76.6167 14.108 76.1527 14.804 75.4807 15.316C74.8087 15.82 73.9567 16.072 72.9247 16.072C72.1327 16.072 71.4327 15.892 70.8247 15.532C70.2167 15.164 69.7407 14.656 69.3967 14.008C69.0607 13.352 68.8927 12.608 68.8927 11.776C68.8927 10.936 69.0607 10.188 69.3967 9.532C69.7407 8.876 70.2167 8.368 70.8247 8.008C71.4327 7.64 72.1327 7.456 72.9247 7.456ZM81.801 9.304C82.569 9.304 83.189 9.552 83.661 10.048C84.133 10.536 84.369 11.244 84.369 12.172V16H83.277V12.268C83.277 11.612 83.109 11.108 82.773 10.756C82.437 10.404 81.981 10.228 81.405 10.228C80.805 10.228 80.325 10.424 79.965 10.816C79.605 11.2 79.425 11.764 79.425 12.508V16H78.333V7.12H79.425V10.972C79.593 10.436 79.889 10.024 80.313 9.736C80.745 9.448 81.241 9.304 81.801 9.304ZM88.744 9.328C89.384 9.328 89.924 9.488 90.364 9.808C90.812 10.128 91.124 10.556 91.3 11.092V9.412H92.392V16H91.3V14.32C91.124 14.856 90.812 15.284 90.364 15.604C89.924 15.924 89.384 16.084 88.744 16.084C88.16 16.084 87.64 15.948 87.184 15.676C86.728 15.404 86.368 15.016 86.104 14.512C85.848 14 85.72 13.4 85.72 12.712C85.72 12.024 85.848 11.424 86.104 10.912C86.368 10.4 86.728 10.008 87.184 9.736C87.64 9.464 88.16 9.328 88.744 9.328ZM89.056 10.3C88.384 10.3 87.844 10.516 87.436 10.948C87.036 11.372 86.836 11.96 86.836 12.712C86.836 13.464 87.036 14.056 87.436 14.488C87.844 14.912 88.384 15.124 89.056 15.124C89.488 15.124 89.872 15.024 90.208 14.824C90.552 14.624 90.82 14.344 91.012 13.984C91.204 13.616 91.3 13.192 91.3 12.712C91.3 12.232 91.204 11.808 91.012 11.44C90.82 11.072 90.552 10.792 90.208 10.6C89.872 10.4 89.488 10.3 89.056 10.3ZM97.2739 15.04V16H96.4579C95.7859 16 95.2819 15.84 94.9459 15.52C94.6179 15.2 94.4539 14.664 94.4539 13.912V10.36H93.4699V9.412H94.4539V7.768H95.5579V9.412H97.2619V10.36H95.5579V13.936C95.5579 14.36 95.6339 14.652 95.7859 14.812C95.9459 14.964 96.2179 15.04 96.6019 15.04H97.2739Z" fill="#1C1C1C"/>
</svg>
