<svg width="132" height="17" viewBox="0 0 132 17" fill="none" xmlns="http://www.w3.org/2000/svg">
<path d="M0.0160002 17H3.712V11.624H6.616L10.216 17H14.536L10.432 11C12.568 10.208 14.032 8.504 14.032 5.792V5.744C14.032 4.16 13.528 2.84 12.592 1.904C11.488 0.8 9.832 0.199999 7.696 0.199999H0.0160002V17ZM3.712 8.36V3.536H7.384C9.184 3.536 10.288 4.352 10.288 5.936V5.984C10.288 7.4 9.256 8.36 7.456 8.36H3.712ZM17.3598 17H30.1518V13.712H21.0318V10.184H28.9518V6.896H21.0318V3.488H30.0318V0.199999H17.3598V17ZM33.4379 17H46.2299V13.712H37.1099V10.184H45.0299V6.896H37.1099V3.488H46.1099V0.199999H33.4379V17ZM49.516 17H61.588V13.64H53.212V0.199999H49.516V17Z" fill="#6C63FF"/>
<path d="M64.3754 17H77.1674V13.712H68.0474V10.184H75.9674V6.896H68.0474V3.488H77.0474V0.199999H64.3754V17ZM79.0135 17H82.7815L84.3175 13.232H91.4215L92.9575 17H96.8215L89.6215 0.079999H86.2135L79.0135 17ZM85.6375 9.968L87.8695 4.52L90.1015 9.968H85.6375ZM99.4144 17H103.11V11.624H106.014L109.614 17H113.934L109.83 11C111.966 10.208 113.43 8.504 113.43 5.792V5.744C113.43 4.16 112.926 2.84 111.99 1.904C110.886 0.8 109.23 0.199999 107.094 0.199999H99.4144V17ZM103.11 8.36V3.536H106.782C108.582 3.536 109.686 4.352 109.686 5.936V5.984C109.686 7.4 108.654 8.36 106.854 8.36H103.11ZM116.758 17H120.406V6.32L128.542 17H131.686V0.199999H128.038V10.544L120.166 0.199999H116.758V17Z" fill="#FF748E"/>
</svg>
